<svg xmlns="http://www.w3.org/2000/svg" xmlns:xlink="http://www.w3.org/1999/xlink" width="70" height="62" viewBox="0 0 70 62">
  <defs>
    <clipPath id="clip-path">
      <rect width="70" height="62" fill="none"/>
    </clipPath>
  </defs>
  <g id="Repeat_Grid_4" data-name="Repeat Grid 4" opacity="0.3" clip-path="url(#clip-path)">
    <g transform="translate(1066 -2147)">
      <rect id="Rectangle_31" data-name="Rectangle 31" width="6" height="6" rx="3" transform="translate(-1066 2147)" fill="#138def"/>
    </g>
    <g transform="translate(1082 -2147)">
      <rect id="Rectangle_31-2" data-name="Rectangle 31" width="6" height="6" rx="3" transform="translate(-1066 2147)" fill="#138def"/>
    </g>
    <g transform="translate(1098 -2147)">
      <rect id="Rectangle_31-3" data-name="Rectangle 31" width="6" height="6" rx="3" transform="translate(-1066 2147)" fill="#138def"/>
    </g>
    <g transform="translate(1114 -2147)">
      <rect id="Rectangle_31-4" data-name="Rectangle 31" width="6" height="6" rx="3" transform="translate(-1066 2147)" fill="#138def"/>
    </g>
    <g transform="translate(1130 -2147)">
      <rect id="Rectangle_31-5" data-name="Rectangle 31" width="6" height="6" rx="3" transform="translate(-1066 2147)" fill="#138def"/>
    </g>
    <g transform="translate(1066 -2133)">
      <rect id="Rectangle_31-6" data-name="Rectangle 31" width="6" height="6" rx="3" transform="translate(-1066 2147)" fill="#138def"/>
    </g>
    <g transform="translate(1082 -2133)">
      <rect id="Rectangle_31-7" data-name="Rectangle 31" width="6" height="6" rx="3" transform="translate(-1066 2147)" fill="#138def"/>
    </g>
    <g transform="translate(1098 -2133)">
      <rect id="Rectangle_31-8" data-name="Rectangle 31" width="6" height="6" rx="3" transform="translate(-1066 2147)" fill="#138def"/>
    </g>
    <g transform="translate(1114 -2133)">
      <rect id="Rectangle_31-9" data-name="Rectangle 31" width="6" height="6" rx="3" transform="translate(-1066 2147)" fill="#138def"/>
    </g>
    <g transform="translate(1130 -2133)">
      <rect id="Rectangle_31-10" data-name="Rectangle 31" width="6" height="6" rx="3" transform="translate(-1066 2147)" fill="#138def"/>
    </g>
    <g transform="translate(1066 -2119)">
      <rect id="Rectangle_31-11" data-name="Rectangle 31" width="6" height="6" rx="3" transform="translate(-1066 2147)" fill="#138def"/>
    </g>
    <g transform="translate(1082 -2119)">
      <rect id="Rectangle_31-12" data-name="Rectangle 31" width="6" height="6" rx="3" transform="translate(-1066 2147)" fill="#138def"/>
    </g>
    <g transform="translate(1098 -2119)">
      <rect id="Rectangle_31-13" data-name="Rectangle 31" width="6" height="6" rx="3" transform="translate(-1066 2147)" fill="#138def"/>
    </g>
    <g transform="translate(1114 -2119)">
      <rect id="Rectangle_31-14" data-name="Rectangle 31" width="6" height="6" rx="3" transform="translate(-1066 2147)" fill="#138def"/>
    </g>
    <g transform="translate(1130 -2119)">
      <rect id="Rectangle_31-15" data-name="Rectangle 31" width="6" height="6" rx="3" transform="translate(-1066 2147)" fill="#138def"/>
    </g>
    <g transform="translate(1066 -2105)">
      <rect id="Rectangle_31-16" data-name="Rectangle 31" width="6" height="6" rx="3" transform="translate(-1066 2147)" fill="#138def"/>
    </g>
    <g transform="translate(1082 -2105)">
      <rect id="Rectangle_31-17" data-name="Rectangle 31" width="6" height="6" rx="3" transform="translate(-1066 2147)" fill="#138def"/>
    </g>
    <g transform="translate(1098 -2105)">
      <rect id="Rectangle_31-18" data-name="Rectangle 31" width="6" height="6" rx="3" transform="translate(-1066 2147)" fill="#138def"/>
    </g>
    <g transform="translate(1114 -2105)">
      <rect id="Rectangle_31-19" data-name="Rectangle 31" width="6" height="6" rx="3" transform="translate(-1066 2147)" fill="#138def"/>
    </g>
    <g transform="translate(1130 -2105)">
      <rect id="Rectangle_31-20" data-name="Rectangle 31" width="6" height="6" rx="3" transform="translate(-1066 2147)" fill="#138def"/>
    </g>
    <g transform="translate(1066 -2091)">
      <rect id="Rectangle_31-21" data-name="Rectangle 31" width="6" height="6" rx="3" transform="translate(-1066 2147)" fill="#138def"/>
    </g>
    <g transform="translate(1082 -2091)">
      <rect id="Rectangle_31-22" data-name="Rectangle 31" width="6" height="6" rx="3" transform="translate(-1066 2147)" fill="#138def"/>
    </g>
    <g transform="translate(1098 -2091)">
      <rect id="Rectangle_31-23" data-name="Rectangle 31" width="6" height="6" rx="3" transform="translate(-1066 2147)" fill="#138def"/>
    </g>
    <g transform="translate(1114 -2091)">
      <rect id="Rectangle_31-24" data-name="Rectangle 31" width="6" height="6" rx="3" transform="translate(-1066 2147)" fill="#138def"/>
    </g>
    <g transform="translate(1130 -2091)">
      <rect id="Rectangle_31-25" data-name="Rectangle 31" width="6" height="6" rx="3" transform="translate(-1066 2147)" fill="#138def"/>
    </g>
  </g>
</svg>
