<svg xmlns="http://www.w3.org/2000/svg" xmlns:xlink="http://www.w3.org/1999/xlink" width="163.021" height="149.339" viewBox="0 0 163.021 149.339">
  <defs>
    <linearGradient id="linear-gradient" y1="0.5" x2="1" y2="0.5" gradientUnits="objectBoundingBox">
      <stop offset="0" stop-color="#00398f"/>
      <stop offset="0.451" stop-color="#003b90"/>
      <stop offset="0.702" stop-color="#004397"/>
      <stop offset="0.903" stop-color="#0051a2"/>
      <stop offset="1" stop-color="#005baa"/>
    </linearGradient>
  </defs>
  <g id="Group_54" data-name="Group 54" transform="translate(966.538 -754.16)">
    <g id="Group_52" data-name="Group 52" opacity="0.4">
      <path id="Path_62" data-name="Path 62" d="M-819.338,781.038c0,30.543,15.821,51.517,15.821,66.234s-8.46,45.627-76.165,45.627-77.644-41.582-77.644-57.77c0-75.8,137.988-108.183,137.988-54.091Z" fill="#cae1f5"/>
    </g>
    <g id="Group_53" data-name="Group 53">
      <path id="Path_63" data-name="Path 63" d="M-877.4,807.836A12.98,12.98,0,0,0-890.366,820.8v8.49h5.983V820.8a6.99,6.99,0,0,1,6.982-6.983,6.991,6.991,0,0,1,6.983,6.983v44.326a22.887,22.887,0,0,0-16.956-7.505,22.973,22.973,0,0,0-22.744,19.947h-10.738A22.973,22.973,0,0,0-943.6,857.622a22.887,22.887,0,0,0-16.956,7.505V820.8a6.991,6.991,0,0,1,6.983-6.983,6.99,6.99,0,0,1,6.982,6.983v8.49h5.983V820.8a12.98,12.98,0,0,0-12.965-12.965A12.98,12.98,0,0,0-966.538,820.8V880.56A22.964,22.964,0,0,0-943.6,903.5a22.973,22.973,0,0,0,22.744-19.947h10.738A22.973,22.973,0,0,0-887.374,903.5a22.964,22.964,0,0,0,22.938-22.939V820.8A12.98,12.98,0,0,0-877.4,807.836Zm-66.2,89.68a16.975,16.975,0,0,1-16.956-16.956A16.976,16.976,0,0,1-943.6,863.6a16.975,16.975,0,0,1,16.956,16.956A16.975,16.975,0,0,1-943.6,897.516Zm56.226,0A16.975,16.975,0,0,1-904.33,880.56,16.975,16.975,0,0,1-887.374,863.6a16.976,16.976,0,0,1,16.956,16.956A16.975,16.975,0,0,1-887.374,897.516Z" fill="url(#linear-gradient)"/>
    </g>
  </g>
</svg>
