<svg xmlns="http://www.w3.org/2000/svg" xmlns:xlink="http://www.w3.org/1999/xlink" width="161.579" height="179.748" viewBox="0 0 161.579 179.748">
  <defs>
    <linearGradient id="linear-gradient" y1="0.5" x2="1" y2="0.5" gradientUnits="objectBoundingBox">
      <stop offset="0" stop-color="#00398f"/>
      <stop offset="0.451" stop-color="#003b90"/>
      <stop offset="0.702" stop-color="#004397"/>
      <stop offset="0.903" stop-color="#0051a2"/>
      <stop offset="1" stop-color="#005baa"/>
    </linearGradient>
  </defs>
  <g id="Group_51" data-name="Group 51" transform="translate(625.747 -754.16)">
    <g id="Group_47" data-name="Group 47" opacity="0.4">
      <path id="Path_56" data-name="Path 56" d="M-479.989,781.038c0,30.543,15.821,51.517,15.821,66.234s-8.46,45.627-76.165,45.627-77.645-41.582-77.645-57.77c0-75.8,137.989-108.183,137.989-54.091Z" fill="#cae1f5"/>
    </g>
    <g id="Group_48" data-name="Group 48">
      <circle id="Ellipse_2" data-name="Ellipse 2" cx="39.77" cy="39.77" r="39.77" transform="translate(-620.974 820.199)" fill="#f0f1ee"/>
    </g>
    <g id="Group_49" data-name="Group 49">
      <path id="Path_57" data-name="Path 57" d="M-606.657,859.969a39.761,39.761,0,0,1,32.612-39.095,40.15,40.15,0,0,0-7.159-.675,39.768,39.768,0,0,0-39.77,39.77,39.768,39.768,0,0,0,39.77,39.77,40.156,40.156,0,0,0,7.159-.674A39.763,39.763,0,0,1-606.657,859.969Z" fill="#cbd3da"/>
    </g>
    <path id="Path_58" data-name="Path 58" d="M-605.222,887.336a17.171,17.171,0,0,1,17.181-14.083h13.927a17.251,17.251,0,0,1,16.987,13.023s8.409,9.184-24.631,9.184S-605.222,887.336-605.222,887.336Zm24.146-19.077c-8.654,0-15.668-6.7-15.668-14.977s7.014-14.977,15.668-14.977,15.668,6.706,15.668,14.977S-572.422,868.259-581.076,868.259Z" fill="#040505"/>
    <path id="Path_59" data-name="Path 59" d="M-515.722,918.733l-30.827-30.826a44.32,44.32,0,0,0,9.887-27.938A44.594,44.594,0,0,0-581.2,815.427a44.6,44.6,0,0,0-44.543,44.542A44.6,44.6,0,0,0-581.2,904.512a44.318,44.318,0,0,0,27.9-9.861l30.831,30.83ZM-616.2,859.969a35.04,35.04,0,0,1,35-35,35.04,35.04,0,0,1,35,35,35.04,35.04,0,0,1-35,35A35.04,35.04,0,0,1-616.2,859.969Z" fill="url(#linear-gradient)"/>
    <g id="Group_50" data-name="Group 50">
      <path id="Path_60" data-name="Path 60" d="M-533.02,879.861a32.954,32.954,0,0,0-5.054.489,15.2,15.2,0,0,0-4.409,1.2,19.985,19.985,0,0,0-4.013,3.549,76.981,76.981,0,0,0-6.749,8.688c-2.7,3.889-5.078,7.674-7.075,11.249-1.789,3.2-3.614,6.715-5.435,10.464a18.672,18.672,0,0,0-4-3.868,8.985,8.985,0,0,0-5-1.817,8.88,8.88,0,0,0-5.17,2.068c-1.917,1.429-2.889,3.055-2.889,4.827,0,1.335.829,2.9,2.535,4.771a59.625,59.625,0,0,1,5.957,7.517,30.638,30.638,0,0,0,2.3,3.245,4.73,4.73,0,0,0,1.929,1.272,12.23,12.23,0,0,0,3.758.4,11.517,11.517,0,0,0,5.114-.8,5.84,5.84,0,0,0,2.315-2.279,54.49,54.49,0,0,0,2.377-5.351,131.738,131.738,0,0,1,11.075-21.245c4.595-7.245,9.1-12.927,13.375-16.88a12.422,12.422,0,0,0,2.011-2.136,3.582,3.582,0,0,0,.547-1.964,3.313,3.313,0,0,0-.97-2.395A3.392,3.392,0,0,0-533.02,879.861Z" fill="#98c1f3"/>
    </g>
    <path id="Path_61" data-name="Path 61" d="M-528.185,818.233a18.1,18.1,0,0,1,17.873-15.326h14.488a18.113,18.113,0,0,1,17.672,14.173s8.748,9.995-25.623,9.995S-528.185,818.233-528.185,818.233Zm25.119-20.761a16.3,16.3,0,0,1-16.3-16.3,16.3,16.3,0,0,1,16.3-16.3,16.3,16.3,0,0,1,16.3,16.3A16.3,16.3,0,0,1-503.066,797.472Z" fill="#040505"/>
  </g>
</svg>
