<svg xmlns="http://www.w3.org/2000/svg" xmlns:xlink="http://www.w3.org/1999/xlink" width="155.155" height="203.313" viewBox="0 0 155.155 203.313">
  <defs>
    <linearGradient id="linear-gradient" x1="0.387" y1="0.485" x2="0.791" y2="0.086" gradientUnits="objectBoundingBox">
      <stop offset="0" stop-color="#00398f"/>
      <stop offset="0.451" stop-color="#003b90"/>
      <stop offset="0.702" stop-color="#004397"/>
      <stop offset="0.903" stop-color="#0051a2"/>
      <stop offset="1" stop-color="#005baa"/>
    </linearGradient>
  </defs>
  <g id="Group_45" data-name="Group 45" transform="translate(-9.275 -11.085)">
    <g id="Group_44" data-name="Group 44" transform="translate(0)">
      <g id="Group_40" data-name="Group 40" transform="translate(10.62 11.085)" opacity="0.4">
        <path id="Path_46" data-name="Path 46" d="M-54.011,781.038c0,30.543,15.822,51.517,15.822,66.234S-46.65,892.9-114.355,892.9-192,851.317-192,835.129c0-75.8,137.988-108.183,137.988-54.091Z" transform="translate(191.999 -754.16)" fill="#e0e9f1"/>
      </g>
      <g id="Group_41" data-name="Group 41" transform="translate(87.525 21)">
        <path id="Path_47" data-name="Path 47" d="M-115.094,752.556c19-21.686,50.83-2.376,29.146,19.934-9.468,9.749,5.443,9.961-12.525,12.749-1.985-6.657-3.013-8.551-1.865-11.173,2.087-4.764,6.881-6.477,8.87-11.635,2.241-5.812-2.925-11.13-10.576-7.394C-110.159,759.005-106.717,761.9-115.094,752.556Z" transform="translate(115.094 -743.075)" fill="#98c1f3"/>
        <path id="Path_48" data-name="Path 48" d="M-99.16,796.978c-1.314-8.468,11.8-10.432,13.1-2.032C-84.752,803.37-97.842,805.473-99.16,796.978Z" transform="translate(115.094 -743.075)" fill="#98c1f3"/>
      </g>
      <g id="Group_42" data-name="Group 42" transform="translate(9.275 54.379)">
        <path id="Path_49" data-name="Path 49" d="M-166.338,860.259A15.178,15.178,0,0,1-151.348,847.4H-139.2a15.189,15.189,0,0,1,14.821,11.887s7.337,8.383-21.49,8.383S-166.338,860.259-166.338,860.259Zm21.068-17.413a13.671,13.671,0,0,1-13.671-13.671A13.67,13.67,0,0,1-145.27,815.5a13.672,13.672,0,0,1,13.67,13.67A13.67,13.67,0,0,1-145.27,842.846Z" transform="translate(193.594 -787.542)" fill="#040505"/>
        <path id="Path_50" data-name="Path 50" d="M-102.2,827.774c-.018-.382-.044-.756-.071-1.128l-.049-.748c-.013-.242-.027-.481-.048-.705-.027-.309-.063-.616-.1-.919l-.073-.668c-.032-.318-.065-.637-.107-.957-.034-.25-.075-.5-.117-.746l-.1-.641c-.054-.362-.107-.726-.17-1.076-.051-.289-.112-.574-.17-.859l-.157-.765c-.054-.268-.107-.533-.164-.791-.088-.381-.187-.752-.283-1.126l-.164-.638c-.048-.2-.1-.39-.153-.595-.115-.412-.241-.81-.367-1.209l-.153-.5c-.06-.2-.118-.4-.179-.573-.13-.4-.275-.789-.42-1.181l-.188-.518c-.065-.185-.13-.367-.2-.538-.169-.437-.35-.862-.533-1.292l-.2-.48c-.054-.135-.109-.268-.166-.4-.257-.572-.528-1.133-.809-1.7l-.194-.4c-.284-.558-.585-1.1-.952-1.758l-.143-.264c-.333-.577-.684-1.142-1.087-1.781-.012-.018-.1-.156-.109-.175-.367-.567-.75-1.121-1.17-1.71-.016-.023-.094-.142-.112-.164-.419-.578-.853-1.144-1.277-1.671-.019-.028-.081-.108-.1-.134-.463-.572-.941-1.133-1.461-1.719q-.752-.834-1.546-1.632s-.006-.006-.01-.01c-8.77-8.792-20.828-13.438-34.872-13.438-28.4,0-48.24,19.836-48.24,48.239a51.747,51.747,0,0,0,6.488,25.082l.725,1.33c.029.052.055.1.086.148l1.212,1.863c.134.207.268.413.341.516l30.861,51.861h-.023l7.149,12.025a2.14,2.14,0,0,0,1.839,1.045h.011a2.136,2.136,0,0,0,1.838-1.065l6.974-12h-.013l30.1-51.8c.265-.394.486-.752.719-1.133s.476-.783.813-1.281a2.009,2.009,0,0,0,.117-.2c.607-1.146,1.549-2.811,1.594-2.9a51.192,51.192,0,0,0,5.646-23.5Q-102.143,829.073-102.2,827.774Zm-15.716.737c-.025.21-.059.408-.093.609l-.2,1.363c-.056.419-.112.84-.2,1.264-.059.284-.133.56-.209.839l-.347,1.333c-.077.323-.15.63-.246.934-.137.456-.306.895-.477,1.335l-.394,1.061c-.067.2-.133.394-.216.588-.231.551-.5,1.088-.766,1.623l-.177.353c-.077.145-.14.281-.206.422-.084.189-.143.311-.207.431-.387.715-.824,1.407-1.274,2.11-.079.124-.159.253-.329.544-.45.671-.96,1.355-1.621,2.183-.075.1-.148.194-.234.314-.616.754-1.276,1.487-2.093,2.324a32.359,32.359,0,0,1-20.967,9.546c-.62.041-1.235.1-1.86.109l-.382.012a32.649,32.649,0,0,1-4.293-.322,32.662,32.662,0,0,1-28.3-32.305,32.643,32.643,0,0,1,32.58-32.632l.4.018a32.281,32.281,0,0,1,22.732,9.545l.2.226c.715.724,1.388,1.474,1.99,2.214l.224.3c.52.65,1.094,1.391,1.712,2.333.09.154.171.286.242.394.425.664.871,1.368,1.272,2.113.062.106.117.231.174.355l.413.846c.273.54.544,1.079.781,1.64.063.154.117.309.17.464l.436,1.192c.175.455.34.879.48,1.329.093.3.167.611.241.92l.294,1.151c.112.408.2.719.262,1.049.086.408.143.829.2,1.251L-118,821.3c.03.177.06.36.082.542.108,1.1.164,2.22.164,3.336S-117.807,827.419-117.914,828.511Z" transform="translate(198.619 -782.165)" fill="url(#linear-gradient)"/>
      </g>
      <g id="Group_43" data-name="Group 43" transform="translate(9.275 140.996)">
        <path id="Path_51" data-name="Path 51" d="M-119.652,919.691a2.533,2.533,0,0,0,3.2,1.62l9.631-3.153a2.532,2.532,0,0,0,1.62-3.2,2.532,2.532,0,0,0-3.2-1.619l-9.631,3.152A2.533,2.533,0,0,0-119.652,919.691Z" transform="translate(189.344 -895.444)" fill="#98c1f3"/>
        <path id="Path_52" data-name="Path 52" d="M-118.887,911.306l6.435-4.772a2.532,2.532,0,0,0,.525-3.543,2.524,2.524,0,0,0-3.543-.525l-6.435,4.772a2.531,2.531,0,0,0-.525,3.543A2.531,2.531,0,0,0-118.887,911.306Z" transform="translate(189.344 -895.444)" fill="#98c1f3"/>
        <path id="Path_53" data-name="Path 53" d="M-103.547,928.592a2.532,2.532,0,0,0-2.518-2.547l-8.012-.044a2.53,2.53,0,0,0-2.547,2.518,2.533,2.533,0,0,0,2.518,2.548l8.012.043A2.533,2.533,0,0,0-103.547,928.592Z" transform="translate(189.344 -895.444)" fill="#98c1f3"/>
        <path id="Path_54" data-name="Path 54" d="M-132.348,897.19a2.533,2.533,0,0,0-3.2-1.62,2.533,2.533,0,0,0-1.62,3.2l1.219,3.724a32.328,32.328,0,0,1-12.11,12.409l8.331,25.451a32.347,32.347,0,0,1,17.1,2.847l1.219,3.724a2.532,2.532,0,0,0,3.2,1.62,2.532,2.532,0,0,0,1.619-3.2Z" transform="translate(189.344 -895.444)" fill="#98c1f3"/>
        <path id="Path_55" data-name="Path 55" d="M-154.228,917.68l-29.879,9.781a7.608,7.608,0,0,0-4.859,9.587l3.153,9.631a7.608,7.608,0,0,0,9.587,4.859l2.408-.788,2.365,7.223a2.532,2.532,0,0,0,3.2,1.62l1.425-.466,3.472,9.719,11.369-4.005-3.383-9.465,1.724-.564a2.532,2.532,0,0,0,1.62-3.2l-2.364-7.224,8.048-2.634c.532-.174,1.072-.3,1.608-.441l-7.932-24.232C-153.189,917.285-153.7,917.506-154.228,917.68Z" transform="translate(189.344 -895.444)" fill="#98c1f3"/>
      </g>
    </g>
  </g>
</svg>
