<svg xmlns="http://www.w3.org/2000/svg" xmlns:xlink="http://www.w3.org/1999/xlink" width="962" height="730" viewBox="0 0 962 730">
  <defs>
    <clipPath id="clip-path">
      <rect id="Rectangle_1039" data-name="Rectangle 1039" width="962" height="730" transform="translate(192 195)" stroke="#707070" stroke-width="1"/>
    </clipPath>
    <linearGradient id="linear-gradient" x1="0.5" y1="1" x2="0.5" gradientUnits="objectBoundingBox">
      <stop offset="0" stop-color="gray" stop-opacity="0.251"/>
      <stop offset="0.54" stop-color="gray" stop-opacity="0.122"/>
      <stop offset="1" stop-color="gray" stop-opacity="0.102"/>
    </linearGradient>
    <linearGradient id="linear-gradient-2" x1="0.5" y1="1" x2="0.5" y2="-0.001" xlink:href="#linear-gradient"/>
  </defs>
  <g id="Mask_Group_220" data-name="Mask Group 220" transform="translate(-192 -195)" clip-path="url(#clip-path)">
    <g id="undraw_contact_us_15o2" transform="translate(192 307.85)">
      <g id="Group_347" data-name="Group 347" transform="translate(373.169 35.109)" opacity="0.1">
        <ellipse id="Ellipse_96" data-name="Ellipse 96" cx="9.989" cy="13.078" rx="9.989" ry="13.078" transform="translate(37.647 269.973)" fill="#3f3d56"/>
        <path id="Path_2593" data-name="Path 2593" d="M449.684,383.9a15.8,15.8,0,0,0,2.089-8c0-7.224-4.476-13.078-10-13.078s-10.024,5.872-10.024,13.1a15.8,15.8,0,0,0,2.089,8,16.335,16.335,0,0,0,0,15.984,16.335,16.335,0,0,0,0,15.984,15.746,15.746,0,0,0-2.089,8c0,7.215,4.476,13.078,9.989,13.078s10-5.863,10-13.078a15.746,15.746,0,0,0-2.089-8,16.335,16.335,0,0,0,0-15.984,16.335,16.335,0,0,0,0-15.984Z" transform="translate(-394.14 -156.808)" fill="#3f3d56"/>
        <ellipse id="Ellipse_97" data-name="Ellipse 97" cx="9.989" cy="13.078" rx="9.989" ry="13.078" transform="translate(37.647 190.055)" fill="#3f3d56"/>
        <ellipse id="Ellipse_98" data-name="Ellipse 98" cx="9.989" cy="13.078" rx="9.989" ry="13.078" transform="translate(37.647 174.072)" fill="#3f3d56"/>
        <path id="Path_2594" data-name="Path 2594" d="M406.417,245.7a46.586,46.586,0,0,1-3.722-5.477l26.244-4.31-28.386.211a47.942,47.942,0,0,1-.878-37.918l38.085,19.758-35.11-25.823a47.863,47.863,0,1,1,79,53.542,47.872,47.872,0,0,1,5.46,8.725l-34.083,17.748,36.33-12.192a47.863,47.863,0,0,1-7.715,44.94,47.854,47.854,0,1,1-75.222,0,47.854,47.854,0,0,1,0-59.177Z" transform="translate(-396.173 -167.944)" fill="#138def"/>
        <path id="Path_2595" data-name="Path 2595" d="M491.882,269.526a47.635,47.635,0,0,1-10.243,29.589,47.854,47.854,0,1,1-75.222,0C400,290.969,491.882,264.154,491.882,269.526Z" transform="translate(-396.173 -162.18)" opacity="0.1"/>
      </g>
      <g id="Group_348" data-name="Group 348" transform="translate(501.82 78.849)" opacity="0.1">
        <ellipse id="Ellipse_99" data-name="Ellipse 99" cx="7.47" cy="9.769" rx="7.47" ry="9.769" transform="translate(28.131 201.578)" fill="#3f3d56"/>
        <path id="Path_2596" data-name="Path 2596" d="M557.849,370.547a11.787,11.787,0,0,0,1.554-5.969c0-5.4-3.344-9.778-7.461-9.778s-7.47,4.389-7.47,9.778a11.7,11.7,0,0,0,1.562,5.969,12.2,12.2,0,0,0,0,11.946,12.2,12.2,0,0,0,0,11.946,11.7,11.7,0,0,0-1.562,5.969c0,5.4,3.344,9.778,7.469,9.778s7.461-4.389,7.461-9.778a11.787,11.787,0,0,0-1.554-5.969,12.288,12.288,0,0,0,0-11.946A12.288,12.288,0,0,0,557.849,370.547Z" transform="translate(-516.35 -201.006)" fill="#3f3d56"/>
        <ellipse id="Ellipse_100" data-name="Ellipse 100" cx="7.47" cy="9.769" rx="7.47" ry="9.769" transform="translate(28.131 141.857)" fill="#3f3d56"/>
        <ellipse id="Ellipse_101" data-name="Ellipse 101" cx="7.47" cy="9.769" rx="7.47" ry="9.769" transform="translate(28.131 129.911)" fill="#3f3d56"/>
        <path id="Path_2597" data-name="Path 2597" d="M525.524,267.256a34.234,34.234,0,0,1-2.782-4.09l19.617-3.221-21.215.158a35.846,35.846,0,0,1-.685-28.342l28.465,14.772-26.253-19.31a35.768,35.768,0,1,1,59.063,40.025,36.165,36.165,0,0,1,4.081,6.522L560.361,287l27.148-9.111a35.777,35.777,0,0,1-5.767,33.582,35.759,35.759,0,1,1-56.175,0,35.759,35.759,0,0,1,0-44.22Z" transform="translate(-517.87 -209.319)" fill="#138def"/>
        <path id="Path_2598" data-name="Path 2598" d="M589.387,285.068a35.61,35.61,0,0,1-7.654,22.11,35.759,35.759,0,1,1-56.175,0C520.748,301.1,589.387,281.056,589.387,285.068Z" transform="translate(-517.869 -205.021)" opacity="0.1"/>
      </g>
      <g id="Group_349" data-name="Group 349" transform="translate(863.291 0)" opacity="0.1">
        <ellipse id="Ellipse_102" data-name="Ellipse 102" cx="9.989" cy="13.078" rx="9.989" ry="13.078" transform="translate(38.321 269.973)" fill="#3f3d56"/>
        <path id="Path_2599" data-name="Path 2599" d="M898.132,350.692a15.8,15.8,0,0,1-2.089-8c0-7.224,4.476-13.078,10-13.078s9.989,5.855,9.989,13.078a15.8,15.8,0,0,1-2.089,8,16.335,16.335,0,0,1,0,15.984,16.334,16.334,0,0,1,0,15.984,15.746,15.746,0,0,1,2.089,8c0,7.215-4.477,13.078-9.989,13.078s-10-5.863-10-13.078a15.746,15.746,0,0,1,2.089-8,16.335,16.335,0,0,1,0-15.984A16.335,16.335,0,0,1,898.132,350.692Z" transform="translate(-857.731 -123.596)" fill="#3f3d56"/>
        <ellipse id="Ellipse_103" data-name="Ellipse 103" cx="9.989" cy="13.078" rx="9.989" ry="13.078" transform="translate(38.321 190.055)" fill="#3f3d56"/>
        <ellipse id="Ellipse_104" data-name="Ellipse 104" cx="9.989" cy="13.078" rx="9.989" ry="13.078" transform="translate(38.321 174.072)" fill="#3f3d56"/>
        <path id="Path_2600" data-name="Path 2600" d="M945.5,212.49a46.6,46.6,0,0,0,3.722-5.477L922.98,202.7l28.386.211A47.942,47.942,0,0,0,952.244,165l-38.085,19.758,35.109-25.823a47.863,47.863,0,1,0-79,53.542,47.874,47.874,0,0,0-5.459,8.725l34.082,17.748-36.33-12.192a47.863,47.863,0,0,0,7.715,44.94,47.854,47.854,0,1,0,75.222,0,47.854,47.854,0,0,0,0-59.177Z" transform="translate(-859.801 -134.733)" fill="#138def"/>
        <path id="Path_2601" data-name="Path 2601" d="M860.025,236.314A47.635,47.635,0,0,0,870.268,265.9a47.854,47.854,0,1,0,75.222,0C951.906,257.757,860.025,230.943,860.025,236.314Z" transform="translate(-859.789 -128.968)" opacity="0.1"/>
      </g>
      <g id="Group_350" data-name="Group 350" transform="translate(779.217 73.582)" opacity="0.1">
        <ellipse id="Ellipse_105" data-name="Ellipse 105" cx="7.47" cy="9.769" rx="7.47" ry="9.769" transform="translate(28.486 201.578)" fill="#3f3d56"/>
        <path id="Path_2602" data-name="Path 2602" d="M808.788,365.565a11.789,11.789,0,0,1-1.554-5.969c0-5.4,3.344-9.778,7.461-9.778s7.47,4.389,7.47,9.778a11.7,11.7,0,0,1-1.562,5.969,12.2,12.2,0,0,1,0,11.946,12.2,12.2,0,0,1,0,11.946,11.7,11.7,0,0,1,1.562,5.969c0,5.4-3.344,9.778-7.47,9.778s-7.461-4.389-7.461-9.778a11.789,11.789,0,0,1,1.554-5.969,12.288,12.288,0,0,1,0-11.946,12.288,12.288,0,0,1,0-11.946Z" transform="translate(-778.732 -196.024)" fill="#3f3d56"/>
        <ellipse id="Ellipse_106" data-name="Ellipse 106" cx="7.47" cy="9.769" rx="7.47" ry="9.769" transform="translate(28.486 141.857)" fill="#3f3d56"/>
        <ellipse id="Ellipse_107" data-name="Ellipse 107" cx="7.47" cy="9.769" rx="7.47" ry="9.769" transform="translate(28.486 129.911)" fill="#3f3d56"/>
        <path id="Path_2603" data-name="Path 2603" d="M844.175,262.274a34.228,34.228,0,0,0,2.783-4.09l-19.617-3.221,21.215.158a35.846,35.846,0,0,0,.685-28.342l-28.465,14.772,26.253-19.31a35.768,35.768,0,1,0-59.063,40.025,36.167,36.167,0,0,0-4.081,6.522l25.454,13.228-27.1-9.1a35.777,35.777,0,0,0,5.767,33.582,35.759,35.759,0,1,0,56.175,0,35.759,35.759,0,0,0,0-44.22Z" transform="translate(-780.272 -204.337)" fill="#138def"/>
        <path id="Path_2604" data-name="Path 2604" d="M780.309,280.086a35.61,35.61,0,0,0,7.654,22.11,35.759,35.759,0,1,0,56.175,0C848.948,296.113,780.309,276.075,780.309,280.086Z" transform="translate(-780.271 -200.039)" opacity="0.1"/>
      </g>
      <g id="Group_351" data-name="Group 351" transform="translate(6.416 0.147)" opacity="0.1">
        <ellipse id="Ellipse_108" data-name="Ellipse 108" cx="9.989" cy="13.078" rx="9.989" ry="13.078" transform="translate(37.656 269.826)" fill="#3f3d56"/>
        <path id="Path_2605" data-name="Path 2605" d="M102.752,350.692a15.8,15.8,0,0,0,2.089-8c0-7.224-4.476-13.078-9.989-13.078s-9.989,5.855-9.989,13.078a15.8,15.8,0,0,0,2.08,8,16.387,16.387,0,0,0,0,15.984,16.387,16.387,0,0,0,0,15.984,15.738,15.738,0,0,0-2.08,8c0,7.215,4.468,13.078,9.989,13.078s10.015-5.846,10.015-13.061a15.747,15.747,0,0,0-2.089-8,16.335,16.335,0,0,0,0-15.984,16.335,16.335,0,0,0,0-15.984Z" transform="translate(-47.209 -123.743)" fill="#3f3d56"/>
        <ellipse id="Ellipse_109" data-name="Ellipse 109" cx="9.989" cy="13.078" rx="9.989" ry="13.078" transform="translate(37.656 189.908)" fill="#3f3d56"/>
        <ellipse id="Ellipse_110" data-name="Ellipse 110" cx="9.989" cy="13.078" rx="9.989" ry="13.078" transform="translate(37.656 173.925)" fill="#3f3d56"/>
        <path id="Path_2606" data-name="Path 2606" d="M59.505,212.482a47.685,47.685,0,0,1-3.722-5.477l26.253-4.31-28.412.255a47.942,47.942,0,0,1-.878-37.918L90.841,184.79,55.731,158.967a47.854,47.854,0,1,1,79,53.542,47.872,47.872,0,0,1,5.46,8.725l-34.091,17.7,36.338-12.192a47.916,47.916,0,0,1-7.724,44.94,47.854,47.854,0,1,1-75.222,0,47.854,47.854,0,0,1,0-59.177Z" transform="translate(-49.244 -134.872)" fill="#138def"/>
        <path id="Path_2607" data-name="Path 2607" d="M144.953,236.314A47.634,47.634,0,0,1,134.71,265.9a47.854,47.854,0,1,1-75.222,0C53.072,257.757,144.953,230.943,144.953,236.314Z" transform="translate(-49.244 -129.115)" opacity="0.1"/>
      </g>
      <g id="Group_352" data-name="Group 352" transform="translate(114.879 73.582)" opacity="0.1">
        <ellipse id="Ellipse_111" data-name="Ellipse 111" cx="7.47" cy="9.769" rx="7.47" ry="9.769" transform="translate(28.131 201.579)" fill="#3f3d56"/>
        <path id="Path_2608" data-name="Path 2608" d="M191.831,365.565a11.788,11.788,0,0,0,1.554-5.969c0-5.4-3.335-9.778-7.461-9.778s-7.47,4.389-7.47,9.778a11.787,11.787,0,0,0,1.562,5.969,12.2,12.2,0,0,0,0,11.946,12.2,12.2,0,0,0,0,11.946,11.789,11.789,0,0,0-1.562,5.969c0,5.4,3.344,9.778,7.47,9.778s7.461-4.389,7.461-9.778a11.788,11.788,0,0,0-1.554-5.969,12.288,12.288,0,0,0,0-11.946,12.288,12.288,0,0,0,0-11.946Z" transform="translate(-150.323 -196.024)" fill="#3f3d56"/>
        <ellipse id="Ellipse_112" data-name="Ellipse 112" cx="7.47" cy="9.769" rx="7.47" ry="9.769" transform="translate(28.131 141.857)" fill="#3f3d56"/>
        <ellipse id="Ellipse_113" data-name="Ellipse 113" cx="7.47" cy="9.769" rx="7.47" ry="9.769" transform="translate(28.131 129.911)" fill="#3f3d56"/>
        <path id="Path_2609" data-name="Path 2609" d="M159.5,262.274a35.293,35.293,0,0,1-2.782-4.09l19.617-3.221-21.215.158a35.847,35.847,0,0,1-.685-28.342L182.9,241.551l-26.253-19.31a35.768,35.768,0,1,1,59.063,40.025,35.215,35.215,0,0,1,4.081,6.522l-25.454,13.227,27.148-9.111a35.777,35.777,0,0,1-5.767,33.582,35.759,35.759,0,1,1-56.175,0,35.759,35.759,0,0,1,0-44.22Z" transform="translate(-151.844 -204.337)" fill="#138def"/>
        <path id="Path_2610" data-name="Path 2610" d="M223.361,280.086a35.61,35.61,0,0,1-7.654,22.11,35.759,35.759,0,1,1-56.175,0C154.7,296.113,223.361,276.075,223.361,280.086Z" transform="translate(-151.843 -200.039)" opacity="0.1"/>
      </g>
      <ellipse id="Ellipse_114" data-name="Ellipse 114" cx="481" cy="7.777" rx="481" ry="7.777" transform="translate(0 425.377)" fill="#138def" opacity="0.1"/>
      <ellipse id="Ellipse_115" data-name="Ellipse 115" cx="481" cy="7.777" rx="481" ry="7.777" transform="translate(0 489.232)" fill="#138def" opacity="0.1"/>
      <ellipse id="Ellipse_116" data-name="Ellipse 116" cx="481" cy="7.777" rx="481" ry="7.777" transform="translate(0 292.11)" fill="#138def" opacity="0.1"/>
      <ellipse id="Ellipse_117" data-name="Ellipse 117" cx="481" cy="7.777" rx="481" ry="7.777" transform="translate(0 358.739)" fill="#138def" opacity="0.1"/>
      <path id="Path_2611" data-name="Path 2611" d="M717.308,227.825a16.062,16.062,0,0,0-9.3,1.018,13.737,13.737,0,0,1-11.182,0,15.694,15.694,0,0,0-13.166.255,8.111,8.111,0,0,1-3.783.948c-5.337,0-9.769-5.372-10.691-12.455a10.426,10.426,0,0,0,2.633-2.87c3.125-5.038,7.961-8.277,13.4-8.277s10.217,3.195,13.342,8.181a10.252,10.252,0,0,0,8.857,4.863h.14C711.849,219.443,715.527,222.849,717.308,227.825Z" transform="translate(-7.403 -130.635)" fill="#138def" opacity="0.1"/>
      <path id="Path_2612" data-name="Path 2612" d="M733.556,206.646l-8.619,5.46,5.266-9.515a8.514,8.514,0,0,0-5.214-1.852h-.14a9.964,9.964,0,0,1-1.755-.132l-2.967,1.852,1.255-2.282a10.348,10.348,0,0,1-5.117-3.88L711,199.615l3.3-6A15.3,15.3,0,0,0,702.59,187.7c-5.442,0-10.278,3.23-13.412,8.268a10.015,10.015,0,0,1-8.856,4.775h-.29c-6,0-10.866,6.8-10.866,15.194s4.863,15.2,10.866,15.2a8.243,8.243,0,0,0,3.783-.948,15.676,15.676,0,0,1,13.166-.263,13.649,13.649,0,0,0,11.182,0,15.729,15.729,0,0,1,13.043.255,8.163,8.163,0,0,0,3.739.93c6,0,10.866-6.811,10.866-15.2A19.248,19.248,0,0,0,733.556,206.646Z" transform="translate(-7.404 -131.706)" fill="#138def" opacity="0.1"/>
      <path id="Path_2613" data-name="Path 2613" d="M369.855,222.987a11.27,11.27,0,0,0-6.522.711,9.585,9.585,0,0,1-7.821,0,10.954,10.954,0,0,0-9.207.184,5.811,5.811,0,0,1-2.633.658c-3.73,0-6.838-3.757-7.487-8.716a7.3,7.3,0,0,0,1.87-2.01c2.186-3.511,5.574-5.793,9.383-5.793s7.154,2.238,9.339,5.723a7.189,7.189,0,0,0,6.206,3.406h.1C366.028,217.132,368.6,219.52,369.855,222.987Z" transform="translate(-26.432 -130.545)" fill="#138def" opacity="0.1"/>
      <path id="Path_2614" data-name="Path 2614" d="M381.223,208.174,375.193,212l3.66-6.662a5.925,5.925,0,0,0-3.643-1.3h-.105a6.576,6.576,0,0,1-1.246-.1l-2.045,1.3.878-1.6a7.285,7.285,0,0,1-3.581-2.712l-3.66,2.317,2.317-4.2a10.717,10.717,0,0,0-8.2-4.152c-3.809,0-7.2,2.265-9.383,5.793a7.022,7.022,0,0,1-6.206,3.344h-.2c-4.2,0-7.61,4.757-7.61,10.638s3.406,10.638,7.61,10.638a5.705,5.705,0,0,0,2.633-.667,10.972,10.972,0,0,1,9.2-.176,9.427,9.427,0,0,0,7.829.053,11.007,11.007,0,0,1,9.128.176,5.688,5.688,0,0,0,2.633.65c4.2,0,7.6-4.766,7.6-10.638a13.456,13.456,0,0,0-1.58-6.539Z" transform="translate(-26.433 -131.294)" fill="#138def" opacity="0.1"/>
      <path id="Path_2615" data-name="Path 2615" d="M267.014,288.09a11.253,11.253,0,0,1,6.513.711,9.6,9.6,0,0,0,7.829,0,10.989,10.989,0,0,1,9.207.176,5.679,5.679,0,0,0,2.633.667c3.73,0,6.838-3.765,7.478-8.725a7.154,7.154,0,0,1-1.861-2.01c-2.194-3.511-5.582-5.784-9.383-5.784s-7.154,2.229-9.348,5.723a7.189,7.189,0,0,1-6.2,3.406h-.1C270.832,282.271,268.251,284.649,267.014,288.09Z" transform="translate(-30.384 -126.824)" fill="#138def" opacity="0.1"/>
      <path id="Path_2616" data-name="Path 2616" d="M256.337,273.3l6.039,3.827-3.669-6.653a5.96,5.96,0,0,1,3.651-1.308h.1a7.478,7.478,0,0,0,1.255-.088l2.045,1.29-.878-1.589a7.277,7.277,0,0,0,3.572-2.712l3.66,2.317-2.282-4.2a10.708,10.708,0,0,1,8.2-4.143c3.8,0,7.2,2.265,9.383,5.793a7.022,7.022,0,0,0,6.2,3.344h.211c4.2,0,7.6,4.766,7.6,10.638s-3.406,10.638-7.6,10.638a5.7,5.7,0,0,1-2.633-.658,10.954,10.954,0,0,0-9.207-.184,9.532,9.532,0,0,1-3.932.878,9.655,9.655,0,0,1-3.9-.825,10.989,10.989,0,0,0-9.12.176,5.688,5.688,0,0,1-2.633.65c-4.2,0-7.61-4.757-7.61-10.638a13.552,13.552,0,0,1,1.554-6.548Z" transform="translate(-31.083 -127.572)" fill="#138def" opacity="0.1"/>
      <path id="Path_2617" data-name="Path 2617" d="M595.279,547.141c2.291-4.248-.307-9.445-3.292-13.228s-6.636-7.724-6.557-12.543c.114-6.925,7.47-11.024,13.342-14.693a65.218,65.218,0,0,0,11.981-9.655,17.667,17.667,0,0,0,3.678-4.933c1.22-2.7,1.185-5.793,1.106-8.777q-.377-14.825-1.466-29.632" transform="translate(-12.189 -116.507)" fill="none" stroke="#3f3d56" stroke-miterlimit="10" stroke-width="3.321"/>
      <path id="Path_2618" data-name="Path 2618" d="M624.26,453.772a10.8,10.8,0,0,0-5.4-8.856l-2.423,4.784.079-5.793a10.8,10.8,0,1,0,7.742,9.866Z" transform="translate(-11.205 -117.091)" fill="#138def"/>
      <path id="Path_2619" data-name="Path 2619" d="M605.963,523.241a10.8,10.8,0,0,1-20.4-4.389,10.534,10.534,0,0,1,.7-4.389,10.814,10.814,0,0,1,20.188.114l-6.75,5.495,7.426-1.755A10.743,10.743,0,0,1,605.963,523.241Z" transform="translate(-12.182 -113.427)" fill="#138def"/>
      <path id="Path_2620" data-name="Path 2620" d="M600.423,503.719a10.8,10.8,0,0,1-3.423-21.2l-.061,4.45,2.449-4.845h0a10.808,10.808,0,1,1,1.009,21.592Z" transform="translate(-11.979 -114.882)" fill="#138def"/>
      <path id="Path_2621" data-name="Path 2621" d="M625.243,487.2a10.8,10.8,0,1,1,4.775-20.188l-1.9,5.266L632,468.438a10.8,10.8,0,0,1-6.794,18.757Z" transform="translate(-10.563 -115.825)" fill="#138def"/>
      <path id="Path_2622" data-name="Path 2622" d="M622.8,456.331c-2.493.272-4.915,1.045-7.426,1.2s-5.266-.448-6.829-2.387a34.647,34.647,0,0,1-2-3.511,7.689,7.689,0,0,0-2.721-2.563,10.8,10.8,0,1,0,20.188,7.18C623.62,456.26,623.208,456.287,622.8,456.331Z" transform="translate(-11.205 -116.77)" opacity="0.1"/>
      <path id="Path_2623" data-name="Path 2623" d="M625.24,486.869a10.805,10.805,0,0,1-10.278-15.413,8,8,0,0,1,2.168,2.177,36.6,36.6,0,0,0,2.141,3.573c1.685,1.975,4.564,2.633,7.171,2.5s5.126-.878,7.724-1.1c.36,0,.72-.053,1.088-.061A10.805,10.805,0,0,1,625.24,486.869Z" transform="translate(-10.561 -115.491)" opacity="0.1"/>
      <path id="Path_2624" data-name="Path 2624" d="M600.423,503.373a10.8,10.8,0,0,1-10.366-15.211,8.777,8.777,0,0,1,2.291,2.194A36.2,36.2,0,0,0,594.691,494c1.817,2.028,4.889,2.747,7.645,2.633s5.266-.711,7.9-.878A10.822,10.822,0,0,1,600.423,503.373Z" transform="translate(-11.979 -114.537)" opacity="0.1"/>
      <path id="Path_2625" data-name="Path 2625" d="M605.963,522.869a10.8,10.8,0,0,1-20.4-4.389,10.534,10.534,0,0,1,.7-4.389,10.789,10.789,0,0,1,2.37,2.115c1.027,1.246,1.7,2.633,2.9,3.836,2.2,2.168,5.776,3.063,8.944,3.142a45.368,45.368,0,0,0,5.486-.316Z" transform="translate(-12.182 -113.055)" opacity="0.1"/>
      <path id="Path_2626" data-name="Path 2626" d="M88.8,487.36c2.291-4.248-.307-9.444-3.292-13.228s-6.636-7.742-6.557-12.543c.114-6.925,7.47-11.024,13.342-14.693a65.217,65.217,0,0,0,11.981-9.655,17.669,17.669,0,0,0,3.678-4.933c1.22-2.7,1.185-5.793,1.106-8.777q-.386-14.825-1.466-29.632" transform="translate(-41.131 -119.923)" fill="none" stroke="#3f3d56" stroke-miterlimit="10" stroke-width="3.321"/>
      <path id="Path_2627" data-name="Path 2627" d="M117.782,393.991a10.8,10.8,0,0,0-5.4-8.856l-2.423,4.784.079-5.793a10.8,10.8,0,1,0,7.742,9.866Z" transform="translate(-40.146 -120.507)" fill="#138def"/>
      <path id="Path_2628" data-name="Path 2628" d="M99.485,463.46a10.8,10.8,0,0,1-20.4-4.389,10.533,10.533,0,0,1,.7-4.389,10.814,10.814,0,0,1,20.188.114l-6.75,5.495,7.426-1.755a10.743,10.743,0,0,1-1.167,4.924Z" transform="translate(-41.124 -116.843)" fill="#138def"/>
      <path id="Path_2629" data-name="Path 2629" d="M93.945,443.938a10.8,10.8,0,0,1-3.423-21.2l-.061,4.45,2.449-4.845h0a10.808,10.808,0,0,1,1.009,21.592Z" transform="translate(-40.921 -118.298)" fill="#138def"/>
      <path id="Path_2630" data-name="Path 2630" d="M118.765,427.423a10.8,10.8,0,1,1,4.775-20.188l-1.9,5.266,3.888-3.844a10.8,10.8,0,0,1-6.794,18.757Z" transform="translate(-39.505 -119.241)" fill="#138def"/>
      <path id="Path_2631" data-name="Path 2631" d="M116.326,396.55c-2.493.272-4.915,1.044-7.426,1.2s-5.266-.448-6.829-2.387a34.655,34.655,0,0,1-2-3.511,7.689,7.689,0,0,0-2.721-2.563,10.8,10.8,0,1,0,20.188,7.18C117.142,396.479,116.73,396.506,116.326,396.55Z" transform="translate(-40.147 -120.186)" opacity="0.1"/>
      <path id="Path_2632" data-name="Path 2632" d="M118.762,427.088a10.8,10.8,0,0,1-10.278-15.413,8,8,0,0,1,2.168,2.177,36.617,36.617,0,0,0,2.142,3.572c1.685,1.975,4.564,2.633,7.171,2.5s5.126-.878,7.724-1.1c.36,0,.72-.053,1.088-.061A10.8,10.8,0,0,1,118.762,427.088Z" transform="translate(-39.503 -118.907)" opacity="0.1"/>
      <path id="Path_2633" data-name="Path 2633" d="M93.945,443.592a10.8,10.8,0,0,1-10.366-15.211,8.777,8.777,0,0,1,2.291,2.194,36.192,36.192,0,0,0,2.344,3.643c1.817,2.028,4.889,2.747,7.645,2.633s5.266-.711,7.9-.878A10.823,10.823,0,0,1,93.945,443.592Z" transform="translate(-40.92 -117.953)" opacity="0.1"/>
      <path id="Path_2634" data-name="Path 2634" d="M99.485,463.088a10.8,10.8,0,0,1-20.4-4.389,10.533,10.533,0,0,1,.7-4.389,10.789,10.789,0,0,1,2.37,2.115c1.027,1.246,1.7,2.633,2.9,3.836,2.2,2.168,5.776,3.063,8.944,3.142a45.375,45.375,0,0,0,5.486-.316Z" transform="translate(-41.124 -116.471)" opacity="0.1"/>
      <path id="Path_2635" data-name="Path 2635" d="M426.638,418.968c-2.291-4.239.307-9.436,3.3-13.219s6.627-7.724,6.548-12.543c-.105-6.934-7.461-11.024-13.342-14.693a64.954,64.954,0,0,1-11.972-9.655,17.361,17.361,0,0,1-3.687-4.924c-1.211-2.712-1.176-5.793-1.106-8.777q.4-14.825,1.466-29.632" transform="translate(-22.422 -123.83)" fill="none" stroke="#3f3d56" stroke-miterlimit="10" stroke-width="3.321"/>
      <path id="Path_2636" data-name="Path 2636" d="M397.2,325.608a10.8,10.8,0,0,1,5.389-8.856l2.423,4.784-.07-5.793a11.077,11.077,0,0,1,3.555-.43,10.8,10.8,0,1,1-11.3,10.3Z" transform="translate(-22.946 -124.414)" fill="#138def"/>
      <path id="Path_2637" data-name="Path 2637" d="M415.493,395.082a10.8,10.8,0,1,0-.518-8.7l6.75,5.495-7.426-1.755a10.744,10.744,0,0,0,1.194,4.959Z" transform="translate(-21.968 -120.755)" fill="#138def"/>
      <path id="Path_2638" data-name="Path 2638" d="M421.033,375.555a10.8,10.8,0,0,0,3.432-21.2l.053,4.45-2.449-4.845h0a10.8,10.8,0,0,0-11.323,10.261,10.674,10.674,0,0,0,.465,3.686,10.8,10.8,0,0,0,9.822,7.645Z" transform="translate(-22.172 -122.206)" fill="#138def"/>
      <path id="Path_2639" data-name="Path 2639" d="M396.226,359.023a10.8,10.8,0,1,0-4.784-20.188l1.913,5.266-3.932-3.766a10.717,10.717,0,0,0-3.511,7.461,10.452,10.452,0,0,0,.272,2.976,10.8,10.8,0,0,0,10.041,8.251Z" transform="translate(-23.591 -123.15)" fill="#138def"/>
      <path id="Path_2640" data-name="Path 2640" d="M398.647,328.167c2.493.272,4.915,1.045,7.417,1.2s5.266-.448,6.838-2.387a34.573,34.573,0,0,0,1.992-3.511,7.715,7.715,0,0,1,2.73-2.563,10.8,10.8,0,1,1-20.188,7.171C397.831,328.088,398.235,328.123,398.647,328.167Z" transform="translate(-22.932 -124.094)" opacity="0.1"/>
      <path id="Path_2641" data-name="Path 2641" d="M396.209,358.689a10.814,10.814,0,0,0,10.278-15.413,8.032,8.032,0,0,0-2.177,2.177,36.618,36.618,0,0,1-2.142,3.572c-1.676,1.975-4.555,2.633-7.162,2.5s-5.126-.878-7.724-1.1c-.36,0-.728-.053-1.088-.061a10.8,10.8,0,0,0,10.015,8.321Z" transform="translate(-23.574 -122.816)" opacity="0.1"/>
      <path id="Path_2642" data-name="Path 2642" d="M421.007,375.209A10.8,10.8,0,0,0,431.373,360a8.627,8.627,0,0,0-2.282,2.194,36.194,36.194,0,0,1-2.344,3.643c-1.826,2.028-4.889,2.747-7.654,2.633s-5.266-.711-7.9-.878a10.8,10.8,0,0,0,9.813,7.619Z" transform="translate(-22.146 -121.86)" opacity="0.1"/>
      <path id="Path_2643" data-name="Path 2643" d="M415.428,394.705a10.8,10.8,0,0,0,19.705-8.777,10.375,10.375,0,0,0-2.37,2.115c-1.027,1.246-1.755,2.633-2.9,3.836-2.212,2.168-5.776,3.063-8.953,3.142a47.346,47.346,0,0,1-5.486-.316Z" transform="translate(-21.904 -120.379)" opacity="0.1"/>
      <circle id="Ellipse_118" data-name="Ellipse 118" cx="87.739" cy="87.739" r="87.739" transform="translate(596.659 121.636)" fill="#3f3d56"/>
      <path id="Path_2644" data-name="Path 2644" d="M730.4,357.579c-3.055-3.055-10.4-7.663-14.044-9.383-4.2-2.019-5.749-1.984-8.725.167-2.475,1.755-4.082,3.449-6.925,2.826s-8.479-4.871-13.93-10.3-9.682-11.033-10.287-13.921,1.062-4.459,2.835-6.934c2.142-2.976,2.2-4.52.167-8.725-1.755-3.643-6.311-10.972-9.392-14.044s-3.748-2.4-5.433-1.755a31.421,31.421,0,0,0-4.977,2.633c-3.055,2.045-4.766,3.748-5.969,6.311s-2.563,7.32,4.433,19.775a110.323,110.323,0,0,0,19.4,25.867h0a110.488,110.488,0,0,0,25.955,19.433c12.446,7.022,17.212,5.626,19.775,4.433s4.266-2.888,6.3-5.969a31.007,31.007,0,0,0,2.633-4.977C732.8,361.327,733.485,360.642,730.4,357.579Z" transform="translate(-8.342 -125.577)" fill="#138def"/>
      <path id="Path_2645" data-name="Path 2645" d="M695.326,249.8a87.774,87.774,0,1,0,87.73,87.744A87.774,87.774,0,0,0,695.326,249.8Zm0,163.8A76.073,76.073,0,1,1,771.4,337.532,76.073,76.073,0,0,1,695.326,413.6Z" transform="translate(-10.928 -128.157)" opacity="0.1"/>
      <circle id="Ellipse_119" data-name="Ellipse 119" cx="87.739" cy="87.739" r="87.739" transform="translate(395.087 254.903)" fill="#3f3d56"/>
      <path id="Path_2646" data-name="Path 2646" d="M552.546,433.788l-26.271,26.727a.474.474,0,0,0,0,.685l18.432,19.6a3.172,3.172,0,1,1-4.485,4.485l-18.336-19.53a.5.5,0,0,0-.7,0l-4.468,4.512a19.635,19.635,0,0,1-14.044,5.907,20.065,20.065,0,0,1-14.289-6.074l-4.292-4.389a.5.5,0,0,0-.7,0L465.1,485.2a3.172,3.172,0,1,1-4.485-4.485l18.362-19.556a.527.527,0,0,0,0-.685L452.7,433.744a.483.483,0,0,0-.825.342v53.481a7.829,7.829,0,0,0,7.8,7.8h85.9a7.829,7.829,0,0,0,7.8-7.8V434.13a.483.483,0,0,0-.843-.342Z" transform="translate(-19.821 -117.654)" fill="#138def"/>
      <path id="Path_2647" data-name="Path 2647" d="M502.485,470.283a13.289,13.289,0,0,0,9.585-3.95l38.261-38.945a7.636,7.636,0,0,0-4.828-1.755H459.537a7.583,7.583,0,0,0-4.828,1.755l38.269,38.945A13.236,13.236,0,0,0,502.485,470.283Z" transform="translate(-19.659 -118.11)" fill="#138def"/>
      <path id="Path_2648" data-name="Path 2648" d="M503.6,375.865a87.774,87.774,0,1,0,87.73,87.745A87.774,87.774,0,0,0,503.6,375.865Zm0,163.8a76.073,76.073,0,1,1,76.074-76.073A76.073,76.073,0,0,1,503.6,539.668Z" transform="translate(-21.883 -120.954)" opacity="0.1"/>
      <circle id="Ellipse_120" data-name="Ellipse 120" cx="87.739" cy="87.739" r="87.739" transform="translate(186.861 189.379)" fill="#3f3d56"/>
      <path id="Path_2649" data-name="Path 2649" d="M304.823,357.158l-34.978,80.7,3.265,3.265,31.721-13.991,31.721,13.991,3.265-3.265Z" transform="translate(-30.223 -122.022)" fill="#138def"/>
      <path id="Path_2650" data-name="Path 2650" d="M307.679,313.85a87.722,87.722,0,1,0,.015,0Zm0,163.8a62.6,62.6,0,1,1,.009.035Z" transform="translate(-33.079 -124.497)" opacity="0.1"/>
      <path id="Path_2651" data-name="Path 2651" d="M700.482,503.457q-1.194-2.914-2.449-5.811a17.247,17.247,0,0,0-2.993-5.17,5.478,5.478,0,0,0-1.755-1.317,7.486,7.486,0,0,0-2.291-.457,18.284,18.284,0,0,0-3.6-.1c-.465-.14-.992-.325-1.51-.535a12.534,12.534,0,0,0,9.339-11.63c0-.176,0-.36,0-.535a12.508,12.508,0,0,0-12.455-12.56,12.289,12.289,0,0,0-6.539,1.87,11.735,11.735,0,0,0-13.166,6.346,14.509,14.509,0,0,0-4.476,10.8c0,.184,0,.377,0,.553.228,6.82,4.634,12.288,10.2,12.841a5.847,5.847,0,0,0-1.615,1.08c-1.7,1.641-1.984,4.248-2.168,6.618l-.132,1.755-2.949,1.053a.544.544,0,0,0-.132.957l2.817,2.01v.5a2.193,2.193,0,0,0,.053.571,4.03,4.03,0,0,0-1.088,1.554,7.179,7.179,0,0,0-.255,2.844l.105,2.449a19.229,19.229,0,0,0,.746,5.451c.369,1.088,1.966,3.713,3.116,3.73-1.062,4.828-1.343,15.009-1.343,15.009-.132.132.237.255.878.36.632,4.845,2.695,18.433,6.355,24.41a51.461,51.461,0,0,1,1.378,5.933s1.045,12.912,2.423,16.747c1.176,3.265,2.107,11.323,2.361,13.658a1.343,1.343,0,0,0-.974,1c-.693,2.089-5.187,5.266-5.187,5.266a21.732,21.732,0,0,0-3.88,2.484c-1.413,1.273-1.36,2.423,4.915,1.7,12.113-1.4,14.184-5.266,14.184-5.266s-.193-.649-.483-1.492a16.2,16.2,0,0,0-1.589-3.748c-.176-.167-.351.114-.562.553a75.162,75.162,0,0,1-.825-16.949s.342-5.933-1.387-10.12a19.163,19.163,0,0,1,0-6.627c.693-2.791-2.765-16.4-2.765-16.4L678.8,544.816a2.879,2.879,0,0,1,.553,1.167l.053.2.053.29a.544.544,0,0,0,.14.272c1.352,5.617,5.056,21.18,5.056,23.462,0,2.791,3.458,9.769,3.458,9.769s1.378,11.516,3.8,16.045c1.843,3.449,1.887,8.505,1.8,10.735h0s-.413,2.87-1.106,3.564a8.479,8.479,0,0,0-1.308,2.273l-.079.167s-1.036,2.1-.342,2.449a17,17,0,0,0,8.3,1.045s1.387-1.755,1.387-2.44a10.987,10.987,0,0,0-.158-1.246c-.255-1.65-.729-4.248-.737-4.274.29-1.124-.878-4.248-.878-4.248l-.351-9.769a45.1,45.1,0,0,0-2.423-19.547s-1.755-6.276-1.378-8.022-.693-20.241-.693-20.241l-.105-.263a19.991,19.991,0,0,1,.105-3.923c.342-4.187-1.036-12.912-1.387-13.254a11.5,11.5,0,0,1-.491-2.888c.079-.729.316-2.861.641-5.512a99.1,99.1,0,0,0,10.2-.878,1.273,1.273,0,0,0,.878-.351,1.229,1.229,0,0,0,.2-.711C704.4,513.428,702.475,508.319,700.482,503.457Zm-6.96,11.068c.36-2.5.746-4.924,1.132-6.723l.053.158a48.823,48.823,0,0,1,1.668,5.53A18.814,18.814,0,0,1,693.522,514.525Z" transform="translate(-8.009 -115.84)" fill="url(#linear-gradient)"/>
      <path id="Path_2652" data-name="Path 2652" d="M666.2,538.631s2.071,18.634,6.557,25.876a50.219,50.219,0,0,1,1.378,5.863s1.036,12.762,2.414,16.554,2.414,14.149,2.414,14.149,4.828,5.512,6.557,1.036a72.691,72.691,0,0,1-1.036-17.941s.342-5.863-1.378-10.006a18.715,18.715,0,0,1,0-6.548c.685-2.765-2.765-16.212-2.765-16.212l-2.756-13.456Z" transform="translate(-7.574 -111.692)" fill="#be6f72"/>
      <path id="Path_2653" data-name="Path 2653" d="M687.829,602.186s-2.071,3.792-14.14,5.17c-6.267.711-6.311-.421-4.9-1.685a21.851,21.851,0,0,1,3.862-2.458s4.485-3.1,5.17-5.17,3.107-.342,3.107-.342c3.45,5.17,4.143-1.387,4.828-.693a15.562,15.562,0,0,1,1.589,3.7C687.636,601.537,687.829,602.186,687.829,602.186Z" transform="translate(-7.469 -108.32)" fill="#ff6f61"/>
      <path id="Path_2654" data-name="Path 2654" d="M687.829,601.984s-2.071,3.792-14.14,5.17c-6.267.711-6.311-.421-4.9-1.685.983.623,2.967.878,6.961-.729,5.749-2.352,9.918-3.713,11.595-4.239C687.636,601.334,687.829,601.984,687.829,601.984Z" transform="translate(-7.469 -108.117)" opacity="0.1"/>
      <path id="Path_2655" data-name="Path 2655" d="M684,584.168s.342-5.863-1.378-10.006a18.716,18.716,0,0,1,0-6.548c.685-2.765-2.765-16.212-2.765-16.212L677.1,537.946l-2.387.14,2.73,13.315s3.449,13.447,2.765,16.212a18.71,18.71,0,0,0,0,6.548c1.755,4.143,1.378,10.006,1.378,10.006a72.692,72.692,0,0,0,1.036,17.941,3.019,3.019,0,0,1-1,1.422c1.281.579,2.633.553,3.414-1.422A72.692,72.692,0,0,1,684,584.168Z" transform="translate(-7.087 -111.692)" opacity="0.1"/>
      <path id="Path_2656" data-name="Path 2656" d="M682.676,466.973a12.288,12.288,0,0,0-6.513,1.852A11.718,11.718,0,0,0,663,475.1a14.289,14.289,0,0,0-4.468,10.673c0,7.338,4.942,13.28,11.033,13.28,4.389,0,8.233-3.125,10-7.645a12.116,12.116,0,0,0,3.107.4,12.42,12.42,0,1,0,0-24.84Z" transform="translate(-8.012 -115.747)" fill="#3f3d56"/>
      <path id="Path_2657" data-name="Path 2657" d="M691.751,540.229l1.036,2.756s1.036,18.283.685,20.012,1.387,7.9,1.387,7.9a44.159,44.159,0,0,1,2.414,19.31l.342,9.655s1.378,3.792.693,4.485-5.89-.614-5.89-.614.693-7.241-1.755-11.727-3.792-15.87-3.792-15.87-3.45-6.9-3.45-9.655S677.9,541.3,677.9,541.3Z" transform="translate(-6.905 -111.561)" fill="#be6f72"/>
      <path id="Path_2658" data-name="Path 2658" d="M665.547,541.079s.351-12.42,1.755-16.212a25.743,25.743,0,0,0,1.536-5.5s20.881,3.774,22.61,2.4c0,0,.342,4.828.693,5.17s1.755,8.971,1.378,13.113,0,4.134,0,4.134-14.149,2.071-14.491,0-1.378-2.063-1.378-2.063S664.862,541.729,665.547,541.079Z" transform="translate(-7.613 -112.754)" fill="#3f3d56"/>
      <g id="Group_353" data-name="Group 353" transform="translate(657.934 409.007)" opacity="0.1">
        <path id="Path_2659" data-name="Path 2659" d="M676.93,539.944s-8.725-.237-11.358-.711v.711c-.685.685,12.078,1.036,12.078,1.036a.877.877,0,0,1,.474.193C677.658,539.944,676.93,539.944,676.93,539.944Z" transform="translate(-665.545 -520.625)"/>
        <path id="Path_2660" data-name="Path 2660" d="M691.393,526.8c-.351-.342-.693-5.17-.693-5.17a1.483,1.483,0,0,1-.588.211,17.442,17.442,0,0,0,.588,3.923c.228.228,1.755,8.97,1.378,13.113s0,4.134,0,4.134-11.191,1.641-13.9.544a4.164,4.164,0,0,0,.105.492c.342,2.071,14.491,0,14.491,0s-.351,0,0-4.134S691.735,527.152,691.393,526.8Z" transform="translate(-664.824 -521.631)"/>
        <path id="Path_2661" data-name="Path 2661" d="M676.93,539.944s-8.725-.237-11.358-.711v.711c-.685.685,12.078,1.036,12.078,1.036a.877.877,0,0,1,.474.193C677.658,539.944,676.93,539.944,676.93,539.944Z" transform="translate(-665.545 -520.625)"/>
        <path id="Path_2662" data-name="Path 2662" d="M691.393,526.8c-.351-.342-.693-5.17-.693-5.17a1.483,1.483,0,0,1-.588.211,17.442,17.442,0,0,0,.588,3.923c.228.228,1.755,8.97,1.378,13.113s0,4.134,0,4.134-11.191,1.641-13.9.544a4.164,4.164,0,0,0,.105.492c.342,2.071,14.491,0,14.491,0s-.351,0,0-4.134S691.735,527.152,691.393,526.8Z" transform="translate(-664.824 -521.631)"/>
      </g>
      <path id="Path_2663" data-name="Path 2663" d="M680.328,487.723a4.572,4.572,0,0,0,1.317,1.7,2.95,2.95,0,0,0,1.238.535c-.772.448-1.615.781-2.387,1.229a42.442,42.442,0,0,0-3.511,2.633,7.145,7.145,0,0,1-4.029,1.562,4.933,4.933,0,0,0,.562-4.907,4.581,4.581,0,0,1-.614-1.7,3.059,3.059,0,0,1,1.694-2.282c.658-.448,1.334-.878,2.019-1.308.535-.334,1.343-1.036,2.019-1.009s.755.623.878,1.238A9.731,9.731,0,0,0,680.328,487.723Z" transform="translate(-7.191 -114.764)" fill="#be6f72"/>
      <path id="Path_2664" data-name="Path 2664" d="M680.328,487.723a4.572,4.572,0,0,0,1.317,1.7,2.95,2.95,0,0,0,1.238.535c-.772.448-1.615.781-2.387,1.229a42.442,42.442,0,0,0-3.511,2.633,7.145,7.145,0,0,1-4.029,1.562,4.933,4.933,0,0,0,.562-4.907,4.581,4.581,0,0,1-.614-1.7,3.059,3.059,0,0,1,1.694-2.282c.658-.448,1.334-.878,2.019-1.308.535-.334,1.343-1.036,2.019-1.009s.755.623.878,1.238A9.731,9.731,0,0,0,680.328,487.723Z" transform="translate(-7.191 -114.764)" opacity="0.1"/>
      <circle id="Ellipse_121" data-name="Ellipse 121" cx="7.935" cy="7.935" r="7.935" transform="translate(673.286 377.443)" fill="#be6f72"/>
      <path id="Path_2665" data-name="Path 2665" d="M698.711,606.258c0,.693-1.378,2.414-1.378,2.414a17.081,17.081,0,0,1-8.277-1.036c-.693-.342.342-2.414.342-2.414l.079-.167a8.375,8.375,0,0,1,1.308-2.247c.685-.685,1.1-3.511,1.1-3.511,2.142-3.511,5.942,1.518,5.942,1.518s.483,2.633.737,4.231A12.02,12.02,0,0,1,698.711,606.258Z" transform="translate(-6.281 -108.257)" fill="#ff6f61"/>
      <path id="Path_2666" data-name="Path 2666" d="M698.711,605.881c0,.693-1.378,2.414-1.378,2.414a17.081,17.081,0,0,1-8.277-1.036c-.693-.342.342-2.414.342-2.414l.079-.167a16.677,16.677,0,0,0,7.513,1.545l1.571-1.571C698.649,605.24,698.711,605.705,698.711,605.881Z" transform="translate(-6.281 -107.88)" opacity="0.1"/>
      <circle id="Ellipse_122" data-name="Ellipse 122" cx="7.759" cy="7.759" r="7.759" transform="translate(657.592 361.056)" fill="#be6f72"/>
      <path id="Path_2667" data-name="Path 2667" d="M666.777,498.4c-1.7,1.624-1.984,4.2-2.159,6.539l-.263,3.432a17.325,17.325,0,0,0-.061,2.782c0,.571.14,1.15.193,1.755s.07,1.369.079,2.063v5.073a5.985,5.985,0,0,0,.562,3.046,2.071,2.071,0,0,0,2.633.948,3,3,0,0,0,1.088-1.685,26.2,26.2,0,0,0,1.756-6.425c.07-.764.079-1.527.149-2.291s.2-1.562.316-2.335c.492-3.23.711-6.5.93-9.752.061-.965.93-4.766-.334-5.187-.614-.2-1.887.43-2.475.641A6.969,6.969,0,0,0,666.777,498.4Z" transform="translate(-7.684 -114.07)" fill="#be6f72"/>
      <path id="Path_2668" data-name="Path 2668" d="M666.777,498.4c-1.7,1.624-1.984,4.2-2.159,6.539l-.263,3.432a17.325,17.325,0,0,0-.061,2.782c0,.571.14,1.15.193,1.755s.07,1.369.079,2.063v5.073a5.985,5.985,0,0,0,.562,3.046,2.071,2.071,0,0,0,2.633.948,3,3,0,0,0,1.088-1.685,26.2,26.2,0,0,0,1.756-6.425c.07-.764.079-1.527.149-2.291s.2-1.562.316-2.335c.492-3.23.711-6.5.93-9.752.061-.965.93-4.766-.334-5.187-.614-.2-1.887.43-2.475.641A6.969,6.969,0,0,0,666.777,498.4Z" transform="translate(-7.684 -114.07)" opacity="0.1"/>
      <path id="Path_2669" data-name="Path 2669" d="M682.656,488.345s-5.863,4.485-9.313,5.521c0,0-2.045,2.335-2.4,2.9s-1.053,6.759-1.755,8.145-2.414,4.485,0,7.584c0,0,.685,3.107.342,4.143s-1.6,4.828-.456,5,4.6,2.581,7.7,1.9,14.667,2.633,14.667,2.633,1.913-17.774,3.3-20.916l-3.107-1.036s-8.619-5.17-3.45-13.1C688.177,491.109,683.332,490.074,682.656,488.345Z" transform="translate(-7.474 -114.526)" fill="#ff6f61"/>
      <path id="Path_2670" data-name="Path 2670" d="M661.622,508.118l7.127,5.047a.527.527,0,0,0,.623,0l1.931-1.448a.544.544,0,0,0,0-.825l-5.486-4.872a.527.527,0,0,0-.535-.105l-3.52,1.264a.535.535,0,0,0-.14.939Z" transform="translate(-7.848 -113.524)" fill="#3f3d56"/>
      <path id="Path_2671" data-name="Path 2671" d="M663.925,523.112a19.1,19.1,0,0,1-.746-5.381l-.105-2.431a7.021,7.021,0,0,1,.255-2.809,4.591,4.591,0,0,1,2.958-2.589,10.216,10.216,0,0,1,4.029-.29,1.036,1.036,0,0,1,.518.14.966.966,0,0,1,.281.474,3.178,3.178,0,0,1,.158,2.537,2.633,2.633,0,0,1-.807.834c-.957.685-2.072,1.141-2.976,1.887a1.079,1.079,0,0,0-.4.509,1.185,1.185,0,0,0,0,.553,8.837,8.837,0,0,0,.456,1.413,1.4,1.4,0,0,0,.4.6c.167.14.386.193.562.325.377.307,1.167.711,1.124,1.194-.132,1.755-1.185,3.722-1.6,5.459C667.234,528.932,664.434,524.6,663.925,523.112Z" transform="translate(-7.755 -113.316)" fill="#be6f72"/>
      <g id="Group_354" data-name="Group 354" transform="translate(667.063 390.206)" opacity="0.1">
        <path id="Path_2672" data-name="Path 2672" d="M674.374,521.635h-.193a5.909,5.909,0,0,0,2.256,0h.219a7.9,7.9,0,0,0-2.282,0Z" transform="translate(-674.181 -502.834)"/>
        <path id="Path_2673" data-name="Path 2673" d="M691.675,503.846c-1.238,2.782-3.063,17.853-3.388,20.846,1.211.316,2.01.544,2.01.544s1.9-17.73,3.283-20.873Z" transform="translate(-673.374 -503.846)"/>
      </g>
      <path id="Path_2674" data-name="Path 2674" d="M688.614,500.023a2.634,2.634,0,0,0,1.132,1.712,15.189,15.189,0,0,1,2.01,2.036,14.417,14.417,0,0,1,1.993,3.994,48.91,48.91,0,0,1,1.659,5.46c-4.389,2.036-9.374,1.94-14.044,3.283a11.209,11.209,0,0,0-5.266,3.116,7.259,7.259,0,0,0-1.94,5.714.745.745,0,0,0,.105.342.737.737,0,0,0,.614.246,5.266,5.266,0,0,0,3.221-1.106,15.334,15.334,0,0,0,2.466-2.423,3.968,3.968,0,0,1,1.756-1.3,28.73,28.73,0,0,1,7.9-.772,99.537,99.537,0,0,0,11.77-.93.948.948,0,0,0,1.053-1.053c.386-5.179-1.536-10.234-3.511-15.036q-1.185-2.888-2.44-5.749a17.03,17.03,0,0,0-2.984-5.109,5.267,5.267,0,0,0-1.755-1.3,7.424,7.424,0,0,0-2.352-.439,16.679,16.679,0,0,0-3.853-.07,8.209,8.209,0,0,0-.369,1.992,17.26,17.26,0,0,0,2.124,6.732C688.035,499.69,688.412,499.707,688.614,500.023Z" transform="translate(-7.121 -114.399)" fill="#be6f72"/>
      <path id="Path_2675" data-name="Path 2675" d="M674.585,503.713a6.433,6.433,0,0,0-.878,3.353,4.516,4.516,0,0,0,.219,1.369,4.441,4.441,0,0,0,2.8,2.633" transform="translate(-7.145 -113.648)" fill="none" stroke="#000" stroke-miterlimit="10" stroke-width="0.83" opacity="0.1"/>
      <path id="Path_2676" data-name="Path 2676" d="M679.622,476.588a4.027,4.027,0,0,0-1.273.2c-1.15-1.756-3.853-2.967-7.022-2.967-4.2,0-7.592,2.168-7.592,4.836s3.4,4.828,7.592,4.828a10.681,10.681,0,0,0,4.555-.965,4.134,4.134,0,1,0,3.722-5.934Z" transform="translate(-7.715 -115.356)" fill="#3f3d56"/>
      <path id="Path_2677" data-name="Path 2677" d="M679.966,483.65a4.126,4.126,0,0,1-3.722-2.344,10.682,10.682,0,0,1-4.555.966c-4.187,0-7.584-2.159-7.584-4.828a2.9,2.9,0,0,1,0-.483,3.275,3.275,0,0,0-.386,1.518c0,2.633,3.4,4.828,7.593,4.828a10.682,10.682,0,0,0,4.555-.965,4.134,4.134,0,0,0,7.786-1.027,4.117,4.117,0,0,1-3.686,2.335Z" transform="translate(-7.716 -115.177)" opacity="0.1"/>
      <path id="Path_2678" data-name="Path 2678" d="M663.008,477.137a11.718,11.718,0,0,1,13.166-6.276,12.411,12.411,0,0,1,18.889,9.532v-1.036a12.411,12.411,0,0,0-18.933-10.533,11.718,11.718,0,0,0-13.166,6.276,14.29,14.29,0,0,0-4.468,10.673v1.036A14.044,14.044,0,0,1,663.008,477.137Z" transform="translate(-8.014 -115.747)" opacity="0.1"/>
      <path id="Path_2679" data-name="Path 2679" d="M738.156,484.13c2.291-4.24-.307-9.445-3.3-13.228s-6.627-7.715-6.548-12.543c.105-6.925,7.461-11.016,13.342-14.693a64.867,64.867,0,0,0,11.972-9.655,17.493,17.493,0,0,0,3.686-4.924c1.211-2.712,1.176-5.793,1.106-8.777q-.386-14.834-1.466-29.632" transform="translate(-4.025 -120.107)" fill="none" stroke="#3f3d56" stroke-miterlimit="10" stroke-width="3.321"/>
      <path id="Path_2680" data-name="Path 2680" d="M767.128,390.736a10.788,10.788,0,0,0-5.389-8.848l-2.423,4.784.07-5.793a10.6,10.6,0,0,0-3.555-.43,10.8,10.8,0,1,0,11.3,10.287Z" transform="translate(-3.041 -120.692)" fill="#138def"/>
      <path id="Path_2681" data-name="Path 2681" d="M748.84,460.219a10.8,10.8,0,1,1,.518-8.707l-6.75,5.495,7.426-1.755a10.743,10.743,0,0,1-1.194,4.968Z" transform="translate(-4.018 -117.033)" fill="#138def"/>
      <path id="Path_2682" data-name="Path 2682" d="M743.3,440.682a10.8,10.8,0,0,1-3.432-21.2l-.053,4.45,2.449-4.836h0a10.808,10.808,0,1,1,1.009,21.592Z" transform="translate(-3.815 -118.484)" fill="#138def"/>
      <path id="Path_2683" data-name="Path 2683" d="M768.111,424.176a10.8,10.8,0,1,1,4.784-20.188l-1.913,5.266,3.932-3.774a10.743,10.743,0,0,1,3.511,7.461,10.424,10.424,0,0,1-.272,2.975A10.8,10.8,0,0,1,768.111,424.176Z" transform="translate(-2.399 -119.427)" fill="#138def"/>
      <path id="Path_2684" data-name="Path 2684" d="M765.681,393.295c-2.493.281-4.924,1.053-7.426,1.211s-5.266-.448-6.838-2.4a33.533,33.533,0,0,1-1.993-3.511,7.769,7.769,0,0,0-2.721-2.563,10.8,10.8,0,1,0,20.188,7.171C766.488,393.225,766.084,393.251,765.681,393.295Z" transform="translate(-3.041 -120.372)" opacity="0.1"/>
      <path id="Path_2685" data-name="Path 2685" d="M768.108,423.842a10.814,10.814,0,0,1-10.278-15.413,8,8,0,0,1,2.177,2.168,34.625,34.625,0,0,0,2.142,3.572c1.676,1.984,4.555,2.633,7.162,2.51s5.126-.878,7.724-1.1c.36,0,.729-.061,1.088-.07a10.8,10.8,0,0,1-10.015,8.33Z" transform="translate(-2.397 -119.093)" opacity="0.1"/>
      <path id="Path_2686" data-name="Path 2686" d="M743.3,440.338a10.8,10.8,0,0,1-10.366-15.229,8.908,8.908,0,0,1,2.282,2.194c.878,1.185,1.36,2.554,2.344,3.643,1.826,2.036,4.889,2.747,7.654,2.686s5.266-.72,7.9-.922a10.8,10.8,0,0,1-9.813,7.627Z" transform="translate(-3.815 -118.14)" opacity="0.1"/>
      <path id="Path_2687" data-name="Path 2687" d="M748.836,459.842a10.814,10.814,0,0,1-19.705-8.777,10.585,10.585,0,0,1,2.37,2.115c1.036,1.255,1.712,2.633,2.9,3.845,2.212,2.168,5.775,3.055,8.953,3.142a47.366,47.366,0,0,0,5.486-.325Z" transform="translate(-4.015 -116.656)" opacity="0.1"/>
      <path id="Path_2688" data-name="Path 2688" d="M870.172,610.334c2.291-4.24-.307-9.444-3.3-13.228s-6.627-7.715-6.548-12.543c.105-6.925,7.461-11.016,13.342-14.693a64.874,64.874,0,0,0,11.972-9.655,17.494,17.494,0,0,0,3.686-4.924c1.211-2.712,1.176-5.793,1.106-8.777q-.377-14.834-1.466-29.632" transform="translate(3.519 -112.895)" fill="none" stroke="#3f3d56" stroke-miterlimit="10" stroke-width="3.321"/>
      <path id="Path_2689" data-name="Path 2689" d="M899.143,516.94a10.787,10.787,0,0,0-5.389-8.848l-2.423,4.784.07-5.793a10.6,10.6,0,0,0-3.511-.43,10.8,10.8,0,1,0,11.3,10.287Z" transform="translate(4.505 -113.481)" fill="#138def"/>
      <path id="Path_2690" data-name="Path 2690" d="M880.856,586.423a10.8,10.8,0,1,1,.518-8.707l-6.75,5.495,7.426-1.755a10.739,10.739,0,0,1-1.194,4.968Z" transform="translate(3.526 -109.821)" fill="#138def"/>
      <path id="Path_2691" data-name="Path 2691" d="M875.316,566.887a10.8,10.8,0,0,1-3.432-21.2l-.053,4.45,2.449-4.836h0A10.808,10.808,0,1,1,875.29,566.9Z" transform="translate(3.729 -111.272)" fill="#138def"/>
      <path id="Path_2692" data-name="Path 2692" d="M900.127,550.381a10.8,10.8,0,1,1,4.784-20.188L903,535.459l3.932-3.774a10.744,10.744,0,0,1,3.511,7.461,10.437,10.437,0,0,1-.272,2.976A10.8,10.8,0,0,1,900.127,550.381Z" transform="translate(5.145 -112.215)" fill="#138def"/>
      <path id="Path_2693" data-name="Path 2693" d="M897.7,519.5c-2.493.281-4.924,1.053-7.426,1.211s-5.266-.448-6.838-2.4a33.5,33.5,0,0,1-1.992-3.511,7.766,7.766,0,0,0-2.721-2.563,10.8,10.8,0,1,0,20.188,7.171C898.5,519.429,898.1,519.455,897.7,519.5Z" transform="translate(4.503 -113.161)" opacity="0.1"/>
      <path id="Path_2694" data-name="Path 2694" d="M900.125,550.046a10.814,10.814,0,0,1-10.278-15.413,8,8,0,0,1,2.177,2.168,34.667,34.667,0,0,0,2.142,3.572c1.676,1.984,4.555,2.633,7.162,2.51s5.126-.878,7.724-1.1c.36,0,.729-.061,1.088-.07A10.8,10.8,0,0,1,900.125,550.046Z" transform="translate(5.147 -111.881)" opacity="0.1"/>
      <path id="Path_2695" data-name="Path 2695" d="M875.316,566.543a10.8,10.8,0,0,1-10.366-15.229,8.912,8.912,0,0,1,2.282,2.194c.878,1.185,1.361,2.554,2.344,3.643,1.826,2.036,4.889,2.747,7.654,2.686s5.266-.72,7.9-.922A10.8,10.8,0,0,1,875.316,566.543Z" transform="translate(3.729 -110.928)" opacity="0.1"/>
      <path id="Path_2696" data-name="Path 2696" d="M880.853,586.046a10.814,10.814,0,0,1-19.705-8.777,10.59,10.59,0,0,1,2.37,2.115c1.036,1.255,1.755,2.633,2.9,3.844,2.212,2.168,5.775,3.055,8.953,3.142a47.351,47.351,0,0,0,5.486-.325Z" transform="translate(3.529 -109.445)" opacity="0.1"/>
      <path id="Path_2697" data-name="Path 2697" d="M446.416,489.469a8.611,8.611,0,0,0-3.432-6.952,10.094,10.094,0,0,0-8.435-9.9,10.076,10.076,0,0,0-6.715-7.5h0a8.568,8.568,0,0,0-1.246-.29H425.1a9.883,9.883,0,0,0-9.55,8.444c-3.081-.711-5.9.211-6.416,2.159a2.633,2.633,0,0,0,.088,1.562c.527,1.51,2.238,2.958,4.529,3.669l.3.088.448.114h.1a7.761,7.761,0,0,0-.737,3.327,7.672,7.672,0,0,0,4.134,6.846l-.2.123a2.739,2.739,0,0,0-.667.93,13.921,13.921,0,0,0-1.29,3.107c-.219.93-.255,1.9-.527,2.818-.509,1.694-1.808,3.125-1.957,4.889-.07.79.061,1.755-.5,2.265a2.732,2.732,0,0,1-.448.316,3.624,3.624,0,0,0-.974,1.027,3.407,3.407,0,0,1-.685.983c-.509.377-1.343.342-1.589.93s.4,1.281.246,1.922-.693.764-1.088,1.124a3.906,3.906,0,0,0-.939,1.755,5.758,5.758,0,0,1-4.74-1.211,8.858,8.858,0,0,1,.492,1.755,7.689,7.689,0,0,0-2.554-1.282,8.065,8.065,0,0,1-2.721-2.019l1.457-.2-6.434-9.822-1.9-.4,1.7,3.274a1.044,1.044,0,0,0-.579.693,2.976,2.976,0,0,0-.061,1.115,19.956,19.956,0,0,0,.439,2.633l.492,2.3c.044.211.1.43.158.641a6.05,6.05,0,0,0-1.9.211,16.574,16.574,0,0,0-3.959-.939,2.194,2.194,0,0,0-.878,0,2.273,2.273,0,0,0-.834.676,27,27,0,0,0-2.94,4.143c-3.511,6.021-8.084,11.279-12.411,16.721-2.984,1.211-5.995,2.361-9.006,3.511L354.71,537.5a9.823,9.823,0,0,1-4.02.878c-.614,0-1.378-.132-1.755.395a3.7,3.7,0,0,0-.395.878l-.667.07h0a7.671,7.671,0,0,0-1.554-2.861.983.983,0,0,0-.728.562c-.158.29-.255.606-.439.878-.342.509-.948.755-1.378,1.185s-.7,1.1-1.176,1.536a4.652,4.652,0,0,1-2.2.878,13.9,13.9,0,0,0-3.449,1.308,5.559,5.559,0,0,1-1.273.588,4.779,4.779,0,0,1-1.5.053l-3.423-.254a2.707,2.707,0,0,0-.922.044,1.756,1.756,0,0,0-1.088,1.755,2.764,2.764,0,0,0,1.088,1.887,6.967,6.967,0,0,0,1.949,1.009,57.188,57.188,0,0,0,9.129,2.7v.693a15.58,15.58,0,0,0,7.022,1.668,1.089,1.089,0,0,0,.527-.1,1.158,1.158,0,0,0,.439-.685,28.24,28.24,0,0,0,1.369-6.724h0a3.51,3.51,0,0,0,1.238-.316c1.176-.325,2.352.483,3.572.614,1.5.167,2.888-.711,4.31-1.246l.614-.2a6.742,6.742,0,0,1-1.422,1.36c-.588.421-1.246.737-1.817,1.176a12.509,12.509,0,0,1-1.545,1.194,9.668,9.668,0,0,1-1.185.456,7.819,7.819,0,0,0-1.694.878,3.432,3.432,0,0,0-1.15,1.124,1.685,1.685,0,0,0-.1,1.58,1.668,1.668,0,0,0,1.132.79,4.643,4.643,0,0,0,1.4,0c1.861-.14,3.713-.307,5.565-.474a14.844,14.844,0,0,0,2.326-.334c.4-.1.808-.228,1.211-.342a10.807,10.807,0,0,1,2.115-.316,1.756,1.756,0,0,1,.614.061c.43.14.737.579,1.176.667a1.755,1.755,0,0,0,.878-.114,19.575,19.575,0,0,1,4.117-.439,1.7,1.7,0,0,0,1.6-.711c.281-.562-.228-1.466-.456-2.212a6.768,6.768,0,0,1-.193-1.457,9.12,9.12,0,0,0-1.018-3.458,9.025,9.025,0,0,1-.764-1.58,39.916,39.916,0,0,0,7.575-3.845,13.543,13.543,0,0,1,4.319-2.08,11.744,11.744,0,0,1,5.424.632,123.426,123.426,0,0,1,12.438,4.336c1.94.8,3.871,1.641,5.872,2.247a9.153,9.153,0,0,0,2.089,2.028,9.656,9.656,0,0,0,4.52,1.238,59.249,59.249,0,0,0,6.364.237,10.733,10.733,0,0,0,4.74-.878,4.873,4.873,0,0,0,.992-.658,3.932,3.932,0,0,0,3.125-1.15,7.575,7.575,0,0,0,2.379-3.757c.518-2,.123-4.389,1.352-5.986.325-.439.755-.79,1.08-1.229a3.458,3.458,0,0,0,.562-2.028.41.41,0,0,1,.053-.079,7.437,7.437,0,0,0,.527-2.019,11.55,11.55,0,0,1,.571-1.6,49.3,49.3,0,0,0,1.633-4.731,27.645,27.645,0,0,0,.755-3.248c.132-.878.211-1.755.281-2.633a16.355,16.355,0,0,1,.8-4.064,33.075,33.075,0,0,0,1.843-9.725v-.193a6.522,6.522,0,0,0,5.775-6.636,6.924,6.924,0,0,0-.606-2.835,8.777,8.777,0,0,0,1.176-4.424Zm-31.405,38.155c.1.342.211.676.325,1.009-.518-.5-1.018-1.018-1.536-1.527.2.07.413.132.606.211a3.269,3.269,0,0,1,.579.307Zm-2.484-1.685c-3.037-2.633-6.548-4.678-9.655-7.233,1.694.834,3.344,1.808,4.977,2.739q2.905,1.659,5.89,3.186a4.819,4.819,0,0,1-1.238,1.308Zm1.29-6.636.149-.149V520.2l-.816-.281a7.277,7.277,0,0,0,.641-.614Zm-26.71,7.11a25.129,25.129,0,0,0,3.23-4.608c1.2,2.1,3.16,3.616,4.819,5.381C392.479,526.843,389.793,526.554,387.107,526.413Z" transform="translate(-26.858 -115.87)" fill="url(#linear-gradient-2)"/>
      <path id="Path_2698" data-name="Path 2698" d="M344.862,363.875l1.913.386,6.522,9.646-2.87.386Z" transform="translate(19.706 21.108)" fill="#2f2e41"/>
      <path id="Path_2699" data-name="Path 2699" d="M344.148,535.925a37.548,37.548,0,0,0,1.913,4.977,47.372,47.372,0,0,0,6.364-1.817,20.048,20.048,0,0,0-1.325-1.755,6.545,6.545,0,0,0-1.8-1.378,4.951,4.951,0,0,0-2.186,0C346.131,535.925,345.14,535.943,344.148,535.925Z" transform="translate(-25.977 -111.813)" fill="#fbbebe"/>
      <path id="Path_2700" data-name="Path 2700" d="M350.2,538.647a3.967,3.967,0,0,1-2.177-2.475,7.97,7.97,0,0,0-1.659-2.958.948.948,0,0,0-.737.553c-.158.281-.255.6-.43.878-.351.5-.966.746-1.4,1.167s-.7,1.08-1.176,1.51a4.669,4.669,0,0,1-2.221.878,14.4,14.4,0,0,0-3.511,1.29,6.058,6.058,0,0,1-1.29.579,5.109,5.109,0,0,1-1.51,0l-3.458-.246a2.7,2.7,0,0,0-.878,0,1.677,1.677,0,0,0-1.1,1.756,2.633,2.633,0,0,0,1.1,1.861,7.286,7.286,0,0,0,1.966,1,57.852,57.852,0,0,0,9.269,2.633v.685a16.045,16.045,0,0,0,7.066,1.641,1.192,1.192,0,0,0,.527-.088,1.158,1.158,0,0,0,.439-.685,27.387,27.387,0,0,0,1.448-7.513,5.986,5.986,0,0,0-.149-1.94c-.193-.623.456-.36-.14-.606" transform="translate(-26.863 -111.962)" fill="#2f2e41"/>
      <path id="Path_2701" data-name="Path 2701" d="M415.446,526.171c-10.252.614-20.381-2.387-30.651-2.7a14.959,14.959,0,0,0-3.809.237,19.184,19.184,0,0,0-3.774,1.466c-5.5,2.563-11.2,4.687-16.888,6.8l-6.539,2.431a9.9,9.9,0,0,1-4.046.878c-.623,0-1.387-.132-1.755.386-1.062,1.58-.562,3.888.14,5.661.228.571.614,1.194,1.229,1.255a3.571,3.571,0,0,0,1.246-.316c1.185-.316,2.37.483,3.6.615,1.51.158,2.914-.7,4.345-1.229,2.37-.878,4.95-.878,7.443-1.264a33.347,33.347,0,0,0,11.656-4.836,13.605,13.605,0,0,1,4.345-2.054,12.026,12.026,0,0,1,5.468.623A125.5,125.5,0,0,1,400,538.389a58.447,58.447,0,0,0,6.548,2.4,23.7,23.7,0,0,0,14.685-.878c1.641-.649,3.423-1.755,3.511-3.564.061-1.009-.729-1.9-1.246-2.765-.334-.553-.676-1.106-1.036-1.641C420.7,529.392,418.562,525.987,415.446,526.171Z" transform="translate(-25.793 -112.521)" fill="#2f2e41"/>
      <path id="Path_2702" data-name="Path 2702" d="M415.446,526.171c-10.252.614-20.381-2.387-30.651-2.7a14.959,14.959,0,0,0-3.809.237,19.184,19.184,0,0,0-3.774,1.466c-5.5,2.563-11.2,4.687-16.888,6.8l-6.539,2.431a9.9,9.9,0,0,1-4.046.878c-.623,0-1.387-.132-1.755.386-1.062,1.58-.562,3.888.14,5.661.228.571.614,1.194,1.229,1.255a3.571,3.571,0,0,0,1.246-.316c1.185-.316,2.37.483,3.6.615,1.51.158,2.914-.7,4.345-1.229,2.37-.878,4.95-.878,7.443-1.264a33.347,33.347,0,0,0,11.656-4.836,13.605,13.605,0,0,1,4.345-2.054,12.026,12.026,0,0,1,5.468.623A125.5,125.5,0,0,1,400,538.389a58.447,58.447,0,0,0,6.548,2.4,23.7,23.7,0,0,0,14.685-.878c1.641-.649,3.423-1.755,3.511-3.564.061-1.009-.729-1.9-1.246-2.765-.334-.553-.676-1.106-1.036-1.641C420.7,529.392,418.562,525.987,415.446,526.171Z" transform="translate(-25.793 -112.521)" opacity="0.1"/>
      <path id="Path_2703" data-name="Path 2703" d="M362.771,536.6q2.4.816,4.854,1.51c.878-1.5,2.633-2.545,3.011-4.266a.4.4,0,0,0,0-.228.422.422,0,0,0-.184-.167,9.2,9.2,0,0,0-3.809-1.115c-1.053-.061-1.536,1.036-2.01,1.808C364.448,534.484,363.2,536.766,362.771,536.6Z" transform="translate(-24.913 -112.013)" fill="#fbbebe"/>
      <path id="Path_2704" data-name="Path 2704" d="M365.754,535.487a3.511,3.511,0,0,1-2.361-1.554c-.219-.395-.465-.93-.922-.878s-.606.527-.7.939a26.332,26.332,0,0,1-1.325,4.555,8.549,8.549,0,0,1-2.835,3.73c-.6.412-1.255.72-1.843,1.159a12.664,12.664,0,0,1-1.554,1.176,9.232,9.232,0,0,1-1.194.439,8.273,8.273,0,0,0-1.7.878,3.379,3.379,0,0,0-1.167,1.115,1.606,1.606,0,0,0-.088,1.554,1.659,1.659,0,0,0,1.132.772,4.776,4.776,0,0,0,1.413,0c1.87-.132,3.739-.3,5.609-.465a16.189,16.189,0,0,0,2.344-.325l1.22-.334a9.712,9.712,0,0,1,2.133-.316,1.659,1.659,0,0,1,.623.061c.43.141.737.571,1.185.658a1.983,1.983,0,0,0,.878-.114,19.378,19.378,0,0,1,4.152-.43,1.752,1.752,0,0,0,1.615-.7c.351-.685-.228-1.448-.465-2.186a7.025,7.025,0,0,1-.193-1.431,8.724,8.724,0,0,0-1.027-3.406c-.474-.878-1.124-1.843-.79-2.774a2.634,2.634,0,0,0,.316-.957C370.072,535.145,366.614,535.68,365.754,535.487Z" transform="translate(-25.648 -111.971)" fill="#2f2e41"/>
      <path id="Path_2705" data-name="Path 2705" d="M397.7,510.951a8.005,8.005,0,0,1-4.09-4.055c-.167-.386-.307-.8-.474-1.185a9.006,9.006,0,0,0-2.44-3.4,1.2,1.2,0,0,0-.878-.378.957.957,0,0,0-.658.711,2.713,2.713,0,0,0-.07,1.1,19.553,19.553,0,0,0,.439,2.563l.5,2.265a4.97,4.97,0,0,0,.307,1.009,3.51,3.51,0,0,0,.834.992c.456.421.922.825,1.387,1.229a4.765,4.765,0,0,0,.878.606,5.1,5.1,0,0,0,1.554.456,13.221,13.221,0,0,1,5.828,2.247v-1.685a2.229,2.229,0,0,0-.439-1.22,7.786,7.786,0,0,0-2.677-1.255Z" transform="translate(-23.41 -113.749)" fill="#fbbebe"/>
      <path id="Path_2706" data-name="Path 2706" d="M397.7,510.951a8.005,8.005,0,0,1-4.09-4.055c-.167-.386-.307-.8-.474-1.185a9.006,9.006,0,0,0-2.44-3.4,1.2,1.2,0,0,0-.878-.378.957.957,0,0,0-.658.711,2.713,2.713,0,0,0-.07,1.1,19.553,19.553,0,0,0,.439,2.563l.5,2.265a4.97,4.97,0,0,0,.307,1.009,3.51,3.51,0,0,0,.834.992c.456.421.922.825,1.387,1.229a4.765,4.765,0,0,0,.878.606,5.1,5.1,0,0,0,1.554.456,13.221,13.221,0,0,1,5.828,2.247v-1.685a2.229,2.229,0,0,0-.439-1.22,7.786,7.786,0,0,0-2.677-1.255Z" transform="translate(-23.41 -113.749)" opacity="0.1"/>
      <ellipse id="Ellipse_123" data-name="Ellipse 123" cx="2.493" cy="2.51" rx="2.493" ry="2.51" transform="translate(392.664 374.854)" fill="#2f2e41"/>
      <path id="Path_2707" data-name="Path 2707" d="M416.444,490.275a2.7,2.7,0,0,0-1.966.281,2.731,2.731,0,0,0-.676.922,13.386,13.386,0,0,0-1.3,3.054c-.219.878-.255,1.87-.535,2.774-.509,1.668-1.817,3.081-1.966,4.819-.07.781.061,1.694-.509,2.221a3.224,3.224,0,0,1-.448.325,3.371,3.371,0,0,0-.983,1.01,3.31,3.31,0,0,1-.693.957c-.509.377-1.352.342-1.6.878s.395,1.264.246,1.9-.7.755-1.1,1.106a3.835,3.835,0,0,0-.948,1.755,5.854,5.854,0,0,1-4.775-1.185,15.2,15.2,0,0,1,.746,5.46,2.23,2.23,0,0,1-.439,1.685,30.391,30.391,0,0,1,5.855,1.018,4.039,4.039,0,0,0,2.554,0,4.267,4.267,0,0,0,1.176-.93A7.5,7.5,0,0,0,411.5,514.6a21.859,21.859,0,0,0,.044-2.519,14.2,14.2,0,0,1,.641-3.063,36.452,36.452,0,0,0,1.115-6.3c.114-1.317,1.255-2.37,1.852-3.511,1.123-2.221,2.282-4.529,2.361-7.022C417.55,491.372,417.269,490.363,416.444,490.275Z" transform="translate(-22.831 -114.42)" fill="#2f2e41"/>
      <path id="Path_2708" data-name="Path 2708" d="M416.444,490.275a2.7,2.7,0,0,0-1.966.281,2.731,2.731,0,0,0-.676.922,13.386,13.386,0,0,0-1.3,3.054c-.219.878-.255,1.87-.535,2.774-.509,1.668-1.817,3.081-1.966,4.819-.07.781.061,1.694-.509,2.221a3.224,3.224,0,0,1-.448.325,3.371,3.371,0,0,0-.983,1.01,3.31,3.31,0,0,1-.693.957c-.509.377-1.352.342-1.6.878s.395,1.264.246,1.9-.7.755-1.1,1.106a3.835,3.835,0,0,0-.948,1.755,5.854,5.854,0,0,1-4.775-1.185,15.2,15.2,0,0,1,.746,5.46,2.23,2.23,0,0,1-.439,1.685,30.391,30.391,0,0,1,5.855,1.018,4.039,4.039,0,0,0,2.554,0,4.267,4.267,0,0,0,1.176-.93A7.5,7.5,0,0,0,411.5,514.6a21.859,21.859,0,0,0,.044-2.519,14.2,14.2,0,0,1,.641-3.063,36.452,36.452,0,0,0,1.115-6.3c.114-1.317,1.255-2.37,1.852-3.511,1.123-2.221,2.282-4.529,2.361-7.022C417.55,491.372,417.269,490.363,416.444,490.275Z" transform="translate(-22.831 -114.42)" opacity="0.1"/>
      <path id="Path_2709" data-name="Path 2709" d="M416.07,529.207c-2.133-1.018-3.7-2.905-5.424-4.529-3.292-3.1-7.32-5.266-10.787-8.189-2.3-1.922-4.389-4.16-6.873-5.776a17.177,17.177,0,0,0-7.364-2.572,1.959,1.959,0,0,0-.878,0,2.019,2.019,0,0,0-.834.658,26.521,26.521,0,0,0-2.975,4.082c-4.389,7.461-10.629,13.728-15.8,20.662a1.317,1.317,0,0,0-.255.492,1.22,1.22,0,0,0,.193.764l1.053,2.054c.588,1.159,1.536,2.5,2.8,2.273a3.063,3.063,0,0,0,1.466-.939l4.722-4.52,4.95-4.731c2.9-2.765,5.846-5.6,7.742-9.146,1.475,2.563,4.1,4.24,5.89,6.583.685.878,1.246,1.87,1.861,2.818.974,1.51,2.089,2.932,3.195,4.389l5.679,7.241a10.865,10.865,0,0,0,2.633,2.633,10.051,10.051,0,0,0,4.555,1.22,60.2,60.2,0,0,0,6.416.228,11.06,11.06,0,0,0,4.784-.878,4.336,4.336,0,0,0,2.589-3.853,5.653,5.653,0,0,0-.816-2.4A19.561,19.561,0,0,0,416.07,529.207Z" transform="translate(-24.792 -113.398)" fill="#2f2e41"/>
      <ellipse id="Ellipse_124" data-name="Ellipse 124" cx="1.922" cy="1.931" rx="1.922" ry="1.931" transform="translate(394.771 377.171)" fill="#e8e8f0"/>
      <path id="Path_2710" data-name="Path 2710" d="M418.169,492.3a3.7,3.7,0,0,1,.211,2.774,11.251,11.251,0,0,1-1.238,2.554,12.16,12.16,0,0,1-1.606,2.282,16.534,16.534,0,0,0,8.444-2.423c2.107-1.132,4.2-2.528,5.328-4.643a2.457,2.457,0,0,1-1.966-.369,7.022,7.022,0,0,1-1.5-1.4l-1.483-1.668a6.677,6.677,0,0,1-.878-1.2,3.318,3.318,0,0,1-.4-1.94,11.293,11.293,0,0,1-1.966,1.633c-1.062.693-2.229,1.194-3.3,1.878-.369.246-1.211.632-.992,1.124S417.871,491.772,418.169,492.3Z" transform="translate(-21.897 -114.645)" fill="#fbbebe"/>
      <path id="Path_2711" data-name="Path 2711" d="M418.169,492.3a3.7,3.7,0,0,1,.211,2.774,11.251,11.251,0,0,1-1.238,2.554,12.16,12.16,0,0,1-1.606,2.282,16.534,16.534,0,0,0,8.444-2.423c2.107-1.132,4.2-2.528,5.328-4.643a2.457,2.457,0,0,1-1.966-.369,7.022,7.022,0,0,1-1.5-1.4l-1.483-1.668a6.677,6.677,0,0,1-.878-1.2,3.318,3.318,0,0,1-.4-1.94,11.293,11.293,0,0,1-1.966,1.633c-1.062.693-2.229,1.194-3.3,1.878-.369.246-1.211.632-.992,1.124S417.871,491.772,418.169,492.3Z" transform="translate(-21.897 -114.645)" opacity="0.1"/>
      <path id="Path_2712" data-name="Path 2712" d="M418.692,492.264a2.5,2.5,0,0,0,0,2.9c.088.105.4.764.535.772a.482.482,0,0,0,.334-.175,22.018,22.018,0,0,0,1.878-2.238,4.178,4.178,0,0,1,2.387-1.562,5.161,5.161,0,0,1,3.291,1.027,3.125,3.125,0,0,1,1.132.878,3.064,3.064,0,0,1,.369,1.255,60.473,60.473,0,0,1,.334,7.979,31.439,31.439,0,0,1-.377,5.749c-.193.974-.474,1.931-.606,2.923a18.646,18.646,0,0,0-.123,2.633v3.669a9.655,9.655,0,0,0,.14,2.01c.176.8.553,1.545.807,2.326a15.21,15.21,0,0,1,.535,2.747l.5,3.792a4.794,4.794,0,0,1-.448,3.511c-.325.43-.755.781-1.088,1.211-1.238,1.615-.878,3.923-1.36,5.9a7.355,7.355,0,0,1-2.405,3.686,3.976,3.976,0,0,1-3.169,1.132c-1.545-.29-2.466-1.9-2.888-3.414s-.571-3.169-1.483-4.45a11.805,11.805,0,0,0-2.932-2.449,5.065,5.065,0,0,1-2.291-2.975c-.1-.553,0-1.124-.1-1.685a3.976,3.976,0,0,0-2.449-3.221c-.79-.307-1.756-.421-2.212-1.141a5.327,5.327,0,0,0,2.308-3.1,15.914,15.914,0,0,0,.562-3.915l.263-4.389a14.659,14.659,0,0,1,1.045-5.7c.386-.79.878-1.536,1.273-2.317a25.16,25.16,0,0,0,1.36-3.4c.632-1.808,1.264-3.616,1.826-5.442a10.255,10.255,0,0,1,1-2.537C417.121,493.431,417.805,492.439,418.692,492.264Z" transform="translate(-22.385 -114.32)" fill="#e8e8f0"/>
      <path id="Path_2713" data-name="Path 2713" d="M408.809,520.956h1.167l.246-1.755a3.659,3.659,0,0,1,.246-1.027,6.142,6.142,0,0,1,.676-.983c1.141-1.624,1.062-3.774,1.343-5.749a29.255,29.255,0,0,1,2.563-7.513l2.265-5.047a6.969,6.969,0,0,0,.492-1.29,7.739,7.739,0,0,0,.14-1.492c0-.781.246-3.625.272-4.389,0-.29-.641-.132-.772-.386-.281-.562-.667.957-1.2,1.29a2.949,2.949,0,0,0-1.045,1.527c-.492,1.264-.79,2.633-1.246,3.888a7.943,7.943,0,0,1-2.115,3.441c-.465.4-1,.729-1.44,1.167-1.4,1.387-1.545,3.59-1.589,5.574C408.774,509.423,408.546,520.956,408.809,520.956Z" transform="translate(-22.289 -114.363)" fill="#2f2e41"/>
      <path id="Path_2714" data-name="Path 2714" d="M425.27,490.269a3.985,3.985,0,0,0-2.08,2.853,14.43,14.43,0,0,1-1.053,3.511c-1.422,2.475-5.047,3.2-6.056,5.872a10.8,10.8,0,0,0-.4,2.765c-.176,1.922-.808,3.774-1,5.688a25.342,25.342,0,0,0,.105,4.468l1.273,15.115a20.189,20.189,0,0,1-.377,6.653,6.407,6.407,0,0,0,3.809-.632c1.185-.544,2.273-1.29,3.423-1.922,1.966-1.088,4.143-1.852,5.872-3.3a3.592,3.592,0,0,0,.79-.878,7.59,7.59,0,0,0,.527-1.984,10.709,10.709,0,0,1,.57-1.562,46.036,46.036,0,0,0,1.65-4.67,26.814,26.814,0,0,0,.755-3.195c.14-.878.219-1.755.29-2.633a15.448,15.448,0,0,1,.807-3.994,32.17,32.17,0,0,0,1.852-9.585,5.011,5.011,0,0,0-.1-1.4,7.516,7.516,0,0,0-.772-1.606c-.527-.992-.878-2.08-1.334-3.09a15.193,15.193,0,0,0-5.187-5.451C427.613,490.594,426.42,489.856,425.27,490.269Z" transform="translate(-21.95 -114.423)" fill="#2f2e41"/>
      <path id="Path_2715" data-name="Path 2715" d="M400.354,513.869a9.154,9.154,0,0,1-2.414-1.835c-.316-.369-.579-.781-.878-1.15a5.978,5.978,0,0,0-3.037-1.755,14.837,14.837,0,0,0-3.511-.342,6.37,6.37,0,0,0-2.344.281,2.387,2.387,0,0,0-1.554,1.668,2.765,2.765,0,0,0,1.185,2.458,5.583,5.583,0,0,0,2.361,1.141,18.885,18.885,0,0,0,2.133.254c4.2.439,7.944,2.721,11.621,4.8q4.845,2.756,9.883,5.126a20.541,20.541,0,0,0,.167-3.028c0-.755-.061-1.913-.772-2.361a15.5,15.5,0,0,0-3.142-.939,49.455,49.455,0,0,1-6.328-2.563A31.488,31.488,0,0,1,400.354,513.869Z" transform="translate(-23.55 -113.359)" fill="#fbbebe"/>
      <ellipse id="Ellipse_125" data-name="Ellipse 125" cx="7.478" cy="7.522" rx="7.478" ry="7.522" transform="translate(387.679 361.749)" fill="#fbbebe"/>
      <path id="Path_2716" data-name="Path 2716" d="M427.709,498.376a11.989,11.989,0,0,0-1.448,2.712c-.878,1.9-2.37,3.511-3.1,5.521s-.737,4.591-2.238,6.232a2.185,2.185,0,0,0-.658.948,4.527,4.527,0,0,1-.07.685c-.219.6-1.194.623-1.378,1.238-.053.176,0,.369-.088.544-.149.4-.676.456-1.018.693-.728.492-.579,1.633-1.1,2.344a1.975,1.975,0,0,1-1.87.658,6.584,6.584,0,0,1-1.94-.729,1.871,1.871,0,0,0-.7-.219,1.448,1.448,0,0,0-.807.281,4.977,4.977,0,0,0-2.019,4.257,13.9,13.9,0,0,0,1.159,4.766,1.913,1.913,0,0,0,.377.711,1.677,1.677,0,0,0,1.861.14,8.779,8.779,0,0,1,1.817-.816c1.159-.211,2.291.588,3.467.518a4.818,4.818,0,0,0,2.335-1.027,12.9,12.9,0,0,0,3.142-2.633c.509-.676.878-1.44,1.334-2.159a27.69,27.69,0,0,1,1.887-2.519l4.318-5.266a12.129,12.129,0,0,0,1.159-1.6,11.258,11.258,0,0,0,.878-2.414,18.489,18.489,0,0,0,.878-4.292,16.494,16.494,0,0,0-.316-3.6,12.72,12.72,0,0,0-.878-3.432C431.755,497.937,429.473,496.322,427.709,498.376Z" transform="translate(-22.255 -114.007)" fill="#2f2e41"/>
      <path id="Path_2717" data-name="Path 2717" d="M442.962,490.361a8.426,8.426,0,0,0-3.458-6.846A10.015,10.015,0,0,0,431,473.763a9.717,9.717,0,0,0-19.144.518c-3.107-.7-5.951.211-6.469,2.124s1.676,4.389,4.95,5.266a9.224,9.224,0,0,0,3.177.316,9.726,9.726,0,0,0,6.688,4.169,9.98,9.98,0,0,0,7.3,7.531,8.382,8.382,0,0,0,2.256,3.116v.729a6.328,6.328,0,1,0,12.657,0,6.758,6.758,0,0,0-.606-2.8A8.461,8.461,0,0,0,442.962,490.361Z" transform="translate(-22.482 -115.805)" fill="#f86d70"/>
      <path id="Path_2718" data-name="Path 2718" d="M407.493,476.809c.518-1.913,3.362-2.826,6.469-2.124a9.883,9.883,0,0,1,9.655-8.321h.641a9.513,9.513,0,0,0-2.756-.413,9.883,9.883,0,0,0-9.655,8.321c-3.107-.7-5.951.211-6.469,2.124s1.676,4.389,4.95,5.266a9.653,9.653,0,0,0,1.878.325C409.073,481.049,406.975,478.767,407.493,476.809Z" transform="translate(-22.482 -115.806)" opacity="0.1"/>
      <path id="Path_2719" data-name="Path 2719" d="M431.378,497.017a6.576,6.576,0,0,1,0-.72,8.2,8.2,0,0,1-2.256-3.116,9.953,9.953,0,0,1-7.3-7.54,9.7,9.7,0,0,1-6.7-4.16,8.424,8.424,0,0,1-1.87-.053,9.752,9.752,0,0,0,6.451,3.836,9.98,9.98,0,0,0,7.3,7.531,8.382,8.382,0,0,0,2.256,3.116v.729a6.443,6.443,0,0,0,6.293,6.548A6.548,6.548,0,0,1,431.378,497.017Z" transform="translate(-22.028 -114.921)" opacity="0.1"/>
      <ellipse id="Ellipse_126" data-name="Ellipse 126" cx="1.15" cy="1.536" rx="1.15" ry="1.536" transform="matrix(0.796, -0.605, 0.605, 0.796, 395.815, 370.281)" fill="#fbbebe"/>
    </g>
  </g>
</svg>
