<svg xmlns="http://www.w3.org/2000/svg" xmlns:xlink="http://www.w3.org/1999/xlink" width="388" height="295" viewBox="0 0 388 295">
  <defs>
    <clipPath id="clip-path">
      <rect id="Rectangle_907" data-name="Rectangle 907" width="388" height="295" transform="translate(721.987 178.62)" fill="#138def" stroke="#707070" stroke-width="1"/>
    </clipPath>
  </defs>
  <g id="Mask_Group_200" data-name="Mask Group 200" transform="translate(-721.986 -178.62)" clip-path="url(#clip-path)">
    <g id="undraw_searching_p5ux" transform="translate(722 186.046)">
      <rect id="Rectangle_1025" data-name="Rectangle 1025" width="3.454" height="136.417" transform="translate(336.892 136.458)" fill="#3f3d56"/>
      <path id="Path_2356" data-name="Path 2356" d="M461.946,191.271c.22,47.7-33.341,86.527-33.341,86.527s-33.917-38.514-34.137-86.216,33.341-86.527,33.341-86.527S461.725,143.57,461.946,191.271Z" transform="translate(-89.728 -37.428)" fill="#3f3d56"/>
      <rect id="Rectangle_1026" data-name="Rectangle 1026" width="1.776" height="70.162" transform="translate(269.515 200.645)" fill="#3f3d56"/>
      <path id="Path_2357" data-name="Path 2357" d="M365.669,269.162c.113,24.534-17.148,44.5-17.148,44.5s-17.444-19.809-17.557-44.343,17.148-44.5,17.148-44.5S365.555,244.628,365.669,269.162Z" transform="translate(-77.984 -59.576)" fill="#3f3d56"/>
      <ellipse id="Ellipse_44" data-name="Ellipse 44" cx="48.125" cy="7.377" rx="48.125" ry="7.377" transform="translate(258.178 265.395)" fill="#3f3d56"/>
      <path id="Path_2358" data-name="Path 2358" d="M394.117,144.168c-4.077-6.889-12.144-7.21-12.144-7.21s-7.86-1.005-12.9,9.487c-4.7,9.78-11.186,19.222-1.044,21.512l1.832-5.7,1.135,6.126a39.68,39.68,0,0,0,4.339.074c10.861-.351,21.205.1,20.872-3.795C395.761,159.479,398.04,150.8,394.117,144.168Z" transform="translate(-83.845 -43.323)" fill="#2f2e41"/>
      <path id="Path_2359" data-name="Path 2359" d="M383.24,161.09s5.269,7.377,2.108,13.349,7.377,12.295,7.377,12.295l7.728-16.861s-9.133-5.972-6.674-11.592Z" transform="translate(-87.652 -47.271)" fill="#fbbebe"/>
      <circle id="Ellipse_45" data-name="Ellipse 45" cx="9.133" cy="9.133" r="9.133" transform="translate(289.968 98.714)" fill="#fbbebe"/>
      <path id="Path_2360" data-name="Path 2360" d="M348.771,162.892l7.633-9.848s2.688-10.322,6.58-9.8-1.537,12.379-1.537,12.379l-7.584,10.9Z" transform="translate(-81.277 -44.487)" fill="#fbbebe"/>
      <path id="Path_2361" data-name="Path 2361" d="M375.584,305.762l2.459,13,5.269,1.405-1.405-15.456Z" transform="translate(-69.457 -56.35)" fill="#fbbebe"/>
      <path id="Path_2362" data-name="Path 2362" d="M440.662,288.124l9.484,13,3.864,1.756,3.161-5.269-9.484-12.295Z" transform="translate(-81.492 -52.763)" fill="#fbbebe"/>
      <path id="Path_2363" data-name="Path 2363" d="M389.4,183.106l-5.86-7.714s-11.353,2.093-12.407,3.147,2.81,20.374,2.81,20.374.7,5.269,3.864,8.079l3.161,2.108,25.994-5.269.977-11.566a30.354,30.354,0,0,0-8-23.21h0l-4.523.618Z" transform="translate(-85.379 -49.264)" fill="#575a89"/>
      <path id="Path_2364" data-name="Path 2364" d="M367.078,178.046l-1.756-.7-8.079-.7s-2.81-.7-2.108-2.108,1.405-1.756,0-2.108-1.756-.7-1.405-1.756a13.981,13.981,0,0,1,2.459-3.161l-5.972-4.918s-.323.229-.846.652c-2.965,2.4-12.346,11.062-5.477,19.722,8.079,10.187,17.564,16.159,25.292,14.051Z" transform="translate(-79.92 -48.068)" fill="#575a89"/>
      <path id="Path_2365" data-name="Path 2365" d="M381.851,215.234v4.918s-3.161,5.972-2.108,11.592,1.405,8.431,1.405,8.431a47.96,47.96,0,0,0,2.459,14.051c2.459,7.026-5.62,53.043,4.567,53.745s15.807,1.405,18.969-2.108-5.269-63.932-5.269-63.932,28.8,60.068,34.776,57.609,21.077-8.079,19.32-11.241-46.017-73.417-46.017-73.417l-1.405-3.161Z" transform="translate(-86.965 -57.154)" fill="#2f2e41"/>
      <path id="Path_2366" data-name="Path 2366" d="M401.065,341.008s-5.62-.351-5.62,1.405-2.81,7.728-2.81,7.728-2.108,7.026,3.513,6.323,9.133-7.026,9.133-7.026l-1.405-6.674Z" transform="translate(-89.317 -81.058)" fill="#2f2e41"/>
      <path id="Path_2367" data-name="Path 2367" d="M474,325.13s-4.918-3.161-4.567-1.054.7,7.728,3.161,8.079,9.836,2.459,10.187,3.161,8.782,3.513,8.782-1.054-5.269-8.079-5.269-8.079l-5.972-4.567s-3.864-.351-4.567,2.108S474,325.13,474,325.13Z" transform="translate(-103.587 -77.474)" fill="#2f2e41"/>
      <circle id="Ellipse_46" data-name="Ellipse 46" cx="5.833" cy="5.833" r="5.833" transform="translate(293.283 87.837)" fill="#2f2e41"/>
      <path id="Path_2368" data-name="Path 2368" d="M379.379,133.8A5.833,5.833,0,0,1,384.6,128a5.892,5.892,0,0,0-.613-.033,5.833,5.833,0,1,0,0,11.665,5.9,5.9,0,0,0,.614-.033A5.833,5.833,0,0,1,379.379,133.8Z" transform="translate(-86.711 -41.665)" fill="#2f2e41"/>
      <path id="Path_2369" data-name="Path 2369" d="M373.636,121.964l-7.969-4.175L354.661,119.5l-2.277,10.056,5.668-.218,1.584-3.694v3.634l2.615-.1,1.518-5.882.949,6.262,9.3-.19Z" transform="translate(-65.166 -21.783)" fill="#2f2e41"/>
      <path id="Path_2370" data-name="Path 2370" d="M393.418,215.6l-12.29.332s-10.487,2.041-9.9-2.192,10.819-2.752,10.819-2.752l11.2-1.708Z" transform="translate(-85.426 -56.702)" fill="#fbbebe"/>
      <path id="Path_2371" data-name="Path 2371" d="M407.429,168.317a2.623,2.623,0,0,1,2.893,1.8c2.406,7.582,9.818,32.955,2.454,36.436-8.674,4.1-15,3.92-15,3.92l-3.388-8.342,3.084-2.895,3.293-21.173,1.578-8.975Z" transform="translate(-89.712 -49.122)" fill="#575a89"/>
      <path id="Path_2372" data-name="Path 2372" d="M383.9,163.563l-1.405,14.051L370.2,182.883l13.7-3.161Z" transform="translate(-68.461 -30.248)" opacity="0.4"/>
      <path id="Path_2373" data-name="Path 2373" d="M325.057,128.735h0a16.454,16.454,0,0,1,9.608,6.98l1.149,1.779.058.074,20.158,5.9a1.469,1.469,0,0,1,1,1.8L355.47,151a1.469,1.469,0,0,1-1.813,1.028l-20.163-5.636h0l-2.025.766a18.1,18.1,0,0,1-11.635.4h0Z" transform="translate(-75.926 -41.807)" fill="#3f3d56"/>
      <ellipse id="Ellipse_47" data-name="Ellipse 47" cx="1.231" cy="2.308" rx="1.231" ry="2.308" transform="translate(265.583 103.453) rotate(-73.69)" fill="#575a89"/>
      <circle id="Ellipse_48" data-name="Ellipse 48" cx="0.846" cy="0.846" r="0.846" transform="translate(268.484 102.478)" fill="#3f3d56"/>
      <ellipse id="Ellipse_49" data-name="Ellipse 49" cx="9.868" cy="4.462" rx="9.868" ry="4.462" transform="translate(239.283 104.431) rotate(-72.034)" fill="#138def"/>
      <path id="Path_2374" data-name="Path 2374" d="M325.973,139.426c1.62-5,1.179-9.65-.952-10.663a2.068,2.068,0,0,1,.378.084c2.344.76,2.882,5.579,1.2,10.763s-4.944,8.77-7.288,8.01a2.059,2.059,0,0,1-.249-.1C321.368,147.813,324.38,144.337,325.973,139.426Z" transform="translate(-75.783 -41.812)" opacity="0.4"/>
      <path id="Path_2375" data-name="Path 2375" d="M269.982,109.031,224.232,73.543a302.778,302.778,0,0,1-23.26-20.158c-13.041-12.431-30.745-22.37-51.357-27.661C99.537,12.868,59.864,35.663,41.82,69.134c-27.573,51.147-48.7,134.145,73.555,89.966,26.738-9.662,53.8-10.689,74.325-15.779L264.01,128Z" transform="translate(-20.586 -22.084)" fill="#138def"/>
      <circle id="Ellipse_50" data-name="Ellipse 50" cx="2.459" cy="2.459" r="2.459" transform="translate(109.588 22.311)" fill="#f2f2f2"/>
      <path id="Path_2376" data-name="Path 2376" d="M195.754,37.218h-.64v-.64h-.125v.64h-.64v.125h.64v.64h.125v-.64h.64Z" transform="translate(-35.941 -6.764)" fill="#f2f2f2"/>
      <path id="Path_2377" data-name="Path 2377" d="M274.623,102.727h-.64v-.64h-.125v.64h-.64v.125h.64v.64h.125v-.64h.64Z" transform="translate(-50.526 -18.879)" fill="#f2f2f2"/>
      <path id="Path_2378" data-name="Path 2378" d="M269.02,122.983h-.64v-.64h-.125v.64h-.64v.125h.64v.64h.125v-.64h.64Z" transform="translate(-49.49 -22.625)" fill="#f2f2f2"/>
      <path id="Path_2379" data-name="Path 2379" d="M28.1,140.222h-.64v-.64h-.125v.64H26.7v.125h.64v.64h.125v-.64h.64Z" transform="translate(-4.937 -25.813)" fill="#f2f2f2"/>
      <path id="Path_2380" data-name="Path 2380" d="M62.582,46.269h-.64v-.64h-.125v.64h-.64v.125h.64v.64h.125v-.64h.64Z" transform="translate(-11.313 -8.438)" fill="#f2f2f2"/>
      <path id="Path_2381" data-name="Path 2381" d="M196.616,126.431h-.64v-.64h-.125v.64h-.64v.125h.64v.64h.125v-.64h.64Z" transform="translate(-36.1 -23.263)" fill="#f2f2f2"/>
      <path id="Path_2382" data-name="Path 2382" d="M114.3,18.686h-.64v-.64h-.125v.64h-.64v.125h.64v.64h.125v-.64h.64Z" transform="translate(-20.877 -3.337)" fill="#f2f2f2"/>
      <path id="Path_2383" data-name="Path 2383" d="M135.325,102.967l-.8.123c.249,1.595.446,3.225.59,4.837l.8-.07C135.778,106.223,135.578,104.579,135.325,102.967Z" transform="translate(-41.657 -37.042)" fill="#e6e6e6"/>
      <path id="Path_2384" data-name="Path 2384" d="M132.654,91.184l-.773.235c.467,1.546.885,3.13,1.24,4.707l.79-.179C133.55,94.353,133.125,92.751,132.654,91.184Z" transform="translate(-41.168 -34.863)" fill="#e6e6e6"/>
      <path id="Path_2385" data-name="Path 2385" d="M128.392,79.884l-.734.337c.674,1.472,1.307,2.982,1.879,4.493l.755-.285C129.713,82.9,129.077,81.37,128.392,79.884Z" transform="translate(-40.387 -32.773)" fill="#e6e6e6"/>
      <path id="Path_2386" data-name="Path 2386" d="M122.629,69.29l-.681.432c.868,1.363,1.7,2.775,2.473,4.191l.71-.386C124.35,72.094,123.507,70.668,122.629,69.29Z" transform="translate(-39.331 -30.814)" fill="#e6e6e6"/>
      <path id="Path_2387" data-name="Path 2387" d="M115.464,59.581l-.615.523c1.047,1.229,2.066,2.515,3.028,3.815l.646-.481C117.554,62.124,116.525,60.824,115.464,59.581Z" transform="translate(-38.018 -29.019)" fill="#e6e6e6"/>
      <path id="Path_2388" data-name="Path 2388" d="M107.043,50.935l-.537.6c1.208,1.078,2.392,2.213,3.52,3.369l.58-.566C109.463,53.169,108.265,52.024,107.043,50.935Z" transform="translate(-36.475 -27.42)" fill="#e6e6e6"/>
      <path id="Path_2389" data-name="Path 2389" d="M97.529,43.514l-.453.667c1.342.9,2.67,1.865,3.945,2.859l.5-.636C100.227,45.4,98.885,44.427,97.529,43.514Z" transform="translate(-34.731 -26.047)" fill="#e6e6e6"/>
      <path id="Path_2390" data-name="Path 2390" d="M88.956,38.359v.913c.84.439,1.672.9,2.487,1.37l.4-.7Q90.424,39.122,88.956,38.359Z" transform="translate(-33.23 -25.094)" fill="#e6e6e6"/>
      <path id="Path_2391" data-name="Path 2391" d="M135.573,115.163l.807-.015c.015.815.016,1.635,0,2.436l-.807-.013C135.588,116.78,135.587,115.969,135.573,115.163Z" transform="translate(-41.85 -39.295)" fill="#e6e6e6"/>
      <path id="Path_2392" data-name="Path 2392" d="M77.143,187.87l-.8.123c.249,1.595.446,3.225.59,4.837l.8-.07C77.6,191.126,77.4,189.482,77.143,187.87Z" transform="translate(-30.898 -52.743)" fill="#e6e6e6"/>
      <path id="Path_2393" data-name="Path 2393" d="M74.472,176.087l-.773.235c.467,1.546.885,3.13,1.24,4.707l.79-.179C75.368,179.255,74.943,177.654,74.472,176.087Z" transform="translate(-30.408 -50.564)" fill="#e6e6e6"/>
      <path id="Path_2394" data-name="Path 2394" d="M70.21,164.787l-.734.337c.674,1.472,1.307,2.982,1.879,4.493l.755-.285C71.531,167.8,70.895,166.273,70.21,164.787Z" transform="translate(-29.627 -48.474)" fill="#e6e6e6"/>
      <path id="Path_2395" data-name="Path 2395" d="M64.447,154.193l-.681.432c.868,1.363,1.7,2.775,2.473,4.191l.71-.386C66.168,157,65.325,155.57,64.447,154.193Z" transform="translate(-28.571 -46.515)" fill="#e6e6e6"/>
      <path id="Path_2396" data-name="Path 2396" d="M57.282,144.483l-.615.523c1.047,1.229,2.066,2.515,3.028,3.815l.646-.481C59.372,147.026,58.343,145.727,57.282,144.483Z" transform="translate(-27.258 -44.72)" fill="#e6e6e6"/>
      <path id="Path_2397" data-name="Path 2397" d="M48.861,135.838l-.537.6c1.208,1.078,2.392,2.213,3.52,3.369l.58-.566C51.281,138.072,50.083,136.927,48.861,135.838Z" transform="translate(-25.715 -43.121)" fill="#e6e6e6"/>
      <path id="Path_2398" data-name="Path 2398" d="M39.347,128.416l-.453.667c1.342.9,2.67,1.865,3.945,2.859l.5-.636C42.045,130.3,40.7,129.33,39.347,128.416Z" transform="translate(-23.971 -41.748)" fill="#e6e6e6"/>
      <path id="Path_2399" data-name="Path 2399" d="M30.774,123.262v.913c.84.439,1.672.9,2.487,1.37l.4-.7Q32.242,124.024,30.774,123.262Z" transform="translate(-22.47 -40.795)" fill="#e6e6e6"/>
      <path id="Path_2400" data-name="Path 2400" d="M77.391,200.066l.807-.015c.015.815.016,1.635,0,2.436l-.807-.013C77.406,201.683,77.405,200.872,77.391,200.066Z" transform="translate(-31.091 -54.996)" fill="#e6e6e6"/>
      <path id="Path_2401" data-name="Path 2401" d="M276.255,145.2l-.8.123c.249,1.595.446,3.225.59,4.837l.8-.07C276.708,148.459,276.508,146.815,276.255,145.2Z" transform="translate(-67.719 -44.853)" fill="#e6e6e6"/>
      <path id="Path_2402" data-name="Path 2402" d="M273.584,133.42l-.773.235c.467,1.546.885,3.13,1.24,4.707l.79-.179C274.48,136.589,274.055,134.987,273.584,133.42Z" transform="translate(-67.23 -42.674)" fill="#e6e6e6"/>
      <path id="Path_2403" data-name="Path 2403" d="M269.322,122.12l-.734.337c.674,1.472,1.307,2.982,1.879,4.493l.755-.285C270.643,125.137,270.007,123.606,269.322,122.12Z" transform="translate(-66.449 -40.584)" fill="#e6e6e6"/>
      <path id="Path_2404" data-name="Path 2404" d="M263.559,111.526l-.681.432c.868,1.363,1.7,2.775,2.473,4.191l.71-.386C265.28,114.33,264.437,112.9,263.559,111.526Z" transform="translate(-65.393 -38.625)" fill="#e6e6e6"/>
      <path id="Path_2405" data-name="Path 2405" d="M256.394,101.816l-.615.523c1.047,1.229,2.066,2.515,3.028,3.815l.646-.481C258.484,104.36,257.455,103.06,256.394,101.816Z" transform="translate(-64.08 -36.829)" fill="#e6e6e6"/>
      <path id="Path_2406" data-name="Path 2406" d="M247.973,93.171l-.537.6c1.208,1.078,2.392,2.213,3.52,3.369l.58-.566C250.393,95.405,249.2,94.26,247.973,93.171Z" transform="translate(-62.537 -35.23)" fill="#e6e6e6"/>
      <path id="Path_2407" data-name="Path 2407" d="M238.459,85.75l-.453.667c1.342.9,2.67,1.865,3.945,2.859l.5-.636C241.156,87.636,239.815,86.663,238.459,85.75Z" transform="translate(-60.793 -33.858)" fill="#e6e6e6"/>
      <path id="Path_2408" data-name="Path 2408" d="M229.886,80.6v.913c.84.439,1.672.9,2.487,1.37l.4-.7Q231.354,81.357,229.886,80.6Z" transform="translate(-59.292 -32.905)" fill="#e6e6e6"/>
      <path id="Path_2409" data-name="Path 2409" d="M276.5,157.4l.807-.015c.015.815.016,1.635,0,2.436l-.807-.013C276.518,159.016,276.517,158.205,276.5,157.4Z" transform="translate(-67.913 -47.105)" fill="#e6e6e6"/>
      <path id="Path_2410" data-name="Path 2410" d="M64.046,86.015h-.6v-.6h-.116v.6h-.6v.116h.6v.6h.116v-.6h.6Z" transform="translate(-11.602 -15.797)" fill="#f2f2f2"/>
      <path id="Path_2411" data-name="Path 2411" d="M55.624,130.129h-.6v-.6h-.116v.6h-.6v.116h.6v.6h.116v-.6h.6Z" transform="translate(-10.045 -23.955)" fill="#f2f2f2"/>
      <path id="Path_2412" data-name="Path 2412" d="M30.913,168.791h-.6v-.6H30.2v.6h-.6v.116h.6v.6h.116v-.6h.6Z" transform="translate(-5.475 -31.104)" fill="#f2f2f2"/>
      <path id="Path_2413" data-name="Path 2413" d="M118.864,126.723a43.141,43.141,0,1,1,20.016,16.071,13.955,13.955,0,1,1-20.016-16.071Z" transform="translate(-37.396 -29.004)" fill="#3f3d56"/>
      <path id="Path_2414" data-name="Path 2414" d="M160.542,82.178c9.89,0,16.694,5.486,16.694,13.371,0,5.222-2.532,8.835-7.411,11.71-4.589,2.664-6.145,4.615-6.145,7.991h0a2.083,2.083,0,0,1-2.083,2.083h-5.056a2.083,2.083,0,0,1-2.082-2.011l-.009-.257c-.448-5.433,1.451-8.809,6.224-11.6C165.131,100.8,167,99.11,167,95.84s-3.165-5.67-7.094-5.67A6.758,6.758,0,0,0,153.474,94a4.655,4.655,0,0,1-4.255,2.66h0a4.576,4.576,0,0,1-4.087-6.671C147.667,85.2,153.014,82.178,160.542,82.178Zm-6.936,45.2a5.662,5.662,0,1,1,5.644,5.433A5.524,5.524,0,0,1,153.605,127.382Z" transform="translate(-43.521 -33.198)" fill="#138def"/>
    </g>
  </g>
</svg>
