<svg xmlns="http://www.w3.org/2000/svg" xmlns:xlink="http://www.w3.org/1999/xlink" width="918" height="697" viewBox="0 0 918 697">
  <defs>
    <clipPath id="clip-path">
      <rect id="Rectangle_1106" data-name="Rectangle 1106" width="918" height="697" transform="translate(192 195)" stroke="#707070" stroke-width="1"/>
    </clipPath>
  </defs>
  <g id="Mask_Group_268" data-name="Mask Group 268" transform="translate(-192 -195)" clip-path="url(#clip-path)">
    <g id="undraw_step_to_the_sun_nxqq" transform="translate(193.058 195)">
      <path id="Path_2803" data-name="Path 2803" d="M764.369,192.717a75.73,75.73,0,0,0,6.44-8.235l-40.9-9.563,44.7,3.33a75.69,75.69,0,0,0,5.443-59.638l-62.091,27.106,58.065-36.97a75.563,75.563,0,1,0-130.17,76.026,75.6,75.6,0,0,0-9.519,13.172l51.812,31.487L632.2,206.385a75.6,75.6,0,0,0,7.411,71.609,75.567,75.567,0,0,0,37.253,123.752,25.994,25.994,0,0,0-2.077,8.655,24.892,24.892,0,0,0,2.441,12.811,25.83,25.83,0,0,0-1.688,25.182,25.83,25.83,0,0,0-1.688,25.182,25.83,25.83,0,0,0-1.688,25.182,24.893,24.893,0,0,0-4.129,12.371c-.763,11.379,5.665,21.076,14.358,21.658s16.357-8.169,17.119-19.548a24.892,24.892,0,0,0-2.441-12.811,25.83,25.83,0,0,0,1.688-25.182,25.83,25.83,0,0,0,1.688-25.182,25.83,25.83,0,0,0,1.688-25.182,24.891,24.891,0,0,0,4.129-12.371,25.971,25.971,0,0,0-.938-8.979,75.568,75.568,0,0,0,52.794-117.594,75.567,75.567,0,0,0,6.248-93.221Z" transform="translate(-83.947 -61.38)" fill="#f2f2f2"/>
      <path id="Path_2804" data-name="Path 2804" d="M847.887,521.927c0,11.141-78.557,49.312-172.145,49.312s-166.766-38.171-166.766-49.312,73.178,8.966,166.766,8.966S847.887,510.785,847.887,521.927Z" transform="translate(-84.925 -57.407)" fill="#3f3d56"/>
      <path id="Path_2805" data-name="Path 2805" d="M847.887,521.927c0,11.141-78.557,49.312-172.145,49.312s-166.766-38.171-166.766-49.312,73.178,8.966,166.766,8.966S847.887,510.785,847.887,521.927Z" transform="translate(-84.925 -57.407)" opacity="0.1"/>
      <ellipse id="Ellipse_127" data-name="Ellipse 127" cx="169.455" cy="20.173" rx="169.455" ry="20.173" transform="translate(424.052 444.347)" fill="#3f3d56"/>
      <ellipse id="Ellipse_128" data-name="Ellipse 128" cx="57.471" cy="16.42" rx="57.471" ry="16.42" transform="translate(540.044 450.711)" opacity="0.1"/>
      <path id="Path_2806" data-name="Path 2806" d="M693.673,416.682a24.893,24.893,0,0,0,3.292-12.619c0-11.4-7.062-20.649-15.774-20.649s-15.774,9.245-15.774,20.649a24.894,24.894,0,0,0,3.292,12.619,25.83,25.83,0,0,0,0,25.238,25.83,25.83,0,0,0,0,25.238,25.83,25.83,0,0,0,0,25.238,24.893,24.893,0,0,0-3.292,12.619c0,11.4,7.062,20.649,15.774,20.649s15.774-9.245,15.774-20.649a24.892,24.892,0,0,0-3.292-12.619,25.829,25.829,0,0,0,0-25.238,25.83,25.83,0,0,0,0-25.238,25.829,25.829,0,0,0,0-25.238Z" transform="translate(-83.549 -58.595)" fill="#3f3d56"/>
      <ellipse id="Ellipse_129" data-name="Ellipse 129" cx="15.774" cy="20.649" rx="15.774" ry="20.649" transform="translate(581.868 299.58)" fill="#3f3d56"/>
      <ellipse id="Ellipse_130" data-name="Ellipse 130" cx="15.774" cy="20.649" rx="15.774" ry="20.649" transform="translate(581.868 274.342)" fill="#3f3d56"/>
      <path id="Path_2807" data-name="Path 2807" d="M740.765,183.7a75.733,75.733,0,0,0,5.874-8.647l-41.447-6.807,44.826.333a75.69,75.69,0,0,0,1.443-59.868l-60.139,31.2,55.463-40.77A75.563,75.563,0,1,0,621.991,183.7a75.6,75.6,0,0,0-8.617,13.779l53.8,27.951-57.367-19.253a75.6,75.6,0,0,0,12.183,70.954,75.557,75.557,0,1,0,118.775,0,75.567,75.567,0,0,0,0-93.43Z" transform="translate(-84.073 -61.426)" fill="#138def"/>
      <path id="Path_2808" data-name="Path 2808" d="M605.82,228.957a75.233,75.233,0,0,0,16.17,46.715,75.557,75.557,0,1,0,118.775,0C750.892,262.816,605.82,220.477,605.82,228.957Z" transform="translate(-84.073 -59.963)" opacity="0.1"/>
      <path id="Path_2809" data-name="Path 2809" d="M948.616,302.754l17.018-15.176c-33.784-6.285-67.691,23.436-76.538,66.7a8.787,8.787,0,0,0-.873.217l-19.19-62.94a109.442,109.442,0,0,0-1.872,22.715l-14.966-29.062c-6.048,32.509,8.353,62.716,32.528,69.956a41.382,41.382,0,0,1-6.032-.433l-.156-.023a19.39,19.39,0,0,0,.137,4.814,4.318,4.318,0,0,0,1.09,2.394,20.731,20.731,0,0,0,5.547,2.52q.315.109.641.218c1.737.583,3.7,1.171,5.723,1.711,2.53.676,5.158,1.278,7.567,1.706.262.047.5.076.728.094.073.006.137.005.207.008.146.007.29.011.421.005.072,0,.138-.011.206-.017a3.165,3.165,0,0,0,.329-.046c.061-.012.119-.027.175-.043a2.1,2.1,0,0,0,.271-.1c.047-.02.094-.04.137-.063a1.611,1.611,0,0,0,.232-.153c.03-.023.063-.044.09-.069a1.468,1.468,0,0,0,.222-.255c.006-.009.015-.016.02-.025a1.666,1.666,0,0,0,.174-.353c0-.008,0-.018.007-.026a2.2,2.2,0,0,0,.09-.369c0-.009,0-.016.006-.024l0,0c.44-2.9-3.625-9.041-3.677-10.779-.05-1.663-4.127-2.11-7.459-1.884l62.62-50.55A47.408,47.408,0,0,0,948.616,302.754Z" transform="translate(-81.919 -59.458)" fill="#f2f2f2"/>
      <path id="Path_2810" data-name="Path 2810" d="M998.526,362.686c0,7.554-53.266,33.436-116.722,33.436S768.728,370.24,768.728,362.686s49.618,6.079,113.075,6.079S998.526,355.131,998.526,362.686Z" transform="translate(-82.641 -58.797)" fill="#3f3d56"/>
      <path id="Path_2811" data-name="Path 2811" d="M998.526,362.686c0,7.554-53.266,33.436-116.722,33.436S768.728,370.24,768.728,362.686s49.618,6.079,113.075,6.079S998.526,355.131,998.526,362.686Z" transform="translate(-82.641 -58.797)" opacity="0.1"/>
      <ellipse id="Ellipse_131" data-name="Ellipse 131" cx="114.899" cy="13.678" rx="114.899" ry="13.678" transform="translate(686.087 290.21)" fill="#3f3d56"/>
      <ellipse id="Ellipse_132" data-name="Ellipse 132" cx="24.63" cy="8.21" rx="24.63" ry="8.21" transform="translate(776.313 295.631)" opacity="0.1"/>
      <path id="Path_2812" data-name="Path 2812" d="M831.816,295.163c0,34.858,21.868,63.065,48.893,63.065" transform="translate(-82.086 -59.371)" fill="#3f3d56"/>
      <path id="Path_2813" data-name="Path 2813" d="M880.284,358.234c0-35.25,24.4-63.774,54.562-63.774" transform="translate(-81.66 -59.377)" fill="#138def"/>
      <path id="Path_2814" data-name="Path 2814" d="M849.377,298.3c0,33.112,13.945,59.905,31.178,59.905" transform="translate(-81.932 -59.343)" fill="#138def"/>
      <path id="Path_2815" data-name="Path 2815" d="M880.284,358.389c0-45.042,28.207-81.489,63.065-81.489" transform="translate(-81.66 -59.531)" fill="#3f3d56"/>
      <path id="Path_2816" data-name="Path 2816" d="M870.087,358.152s6.934-.214,9.024-1.7,10.666-3.265,11.184-.878,10.42,11.869,2.592,11.932-18.19-1.219-20.275-2.49S870.087,358.152,870.087,358.152Z" transform="translate(-81.75 -58.85)" fill="#a8a8a8"/>
      <path id="Path_2817" data-name="Path 2817" d="M893.027,366.641c-7.828.063-18.19-1.219-20.275-2.49-1.588-.968-2.221-4.439-2.433-6.041l-.231.009s.439,5.592,2.525,6.863,12.447,2.553,20.275,2.49c2.26-.018,3.04-.822,3-2.013C895.571,366.179,894.709,366.628,893.027,366.641Z" transform="translate(-81.75 -58.817)" opacity="0.2"/>
      <path id="Path_2818" data-name="Path 2818" d="M274.837,268.926l8.794,13.931c-2.944,3.939-5.034,8.22-3.694,11.051,3.3,6.978,10.894,16,14.942,20.809s4.613,17.688,32.076,16.148,38.574-13.97,38.574-13.97,2.434,22.549,14.11,30.619a9.727,9.727,0,0,1-3.853,3.151c-12.337,5.76-25.8,51.766-35.135,77.039-10.183,27.57,5.291,22.767,5.291,22.767,5.183.085,9.946.36,14.316.774,5.084,13.462,13.148,42.246,3.691,71.892-6.614,20.734-5.223,42.586-2.266,59.045l-6.175,6.6c-6.882,2.2-8.925,6.483-8.925,6.483L330.739,617.33l2.625,1.9,9.5-13.127s2.072,1.852,4.917,7.674-5.247,28.553-5.39,30.214,7.209,13.45,17.49,17.124a5.307,5.307,0,0,0,2.2.333l-.941,10.931,5.584-.077,1.716-19.932s4.308,27.7,5.177,30.566,9.823,2.519,19.188,3.883,18.671-9.548,9.134-15.389-10.732-24.351-10.732-24.351c4.514-13.556-5.683-31.167-5.683-31.167l-1.166-12.372a3.679,3.679,0,0,1-2.409,2.06l1.394-16.188c10.643-12.242,24.554-28.582,31.757-38.446,12.647-17.318,11.968-22.4,11.968-22.4l12.964-57.492a68.6,68.6,0,0,0,12.923-.241c8.775-1.323,5.5-30.146.427-53.385,1.331-5.5,3.437-13.082,6.751-23.5a73.524,73.524,0,0,0,3.129-15.427c2-21.211-5.322-38.948-8.507-45.5l1.1-2.781s10.133-11.065,2.2-29.789a43.131,43.131,0,0,0,.939-6.013,45.012,45.012,0,0,0-5.683-25.715c-.053-.091-.106-.183-.162-.264l-.057-.09h-.016a2.955,2.955,0,0,0-.237-.3c-3.221-3.28-19.649-9.49-22.995-10.733a1.6,1.6,0,0,0-.6-.223c-1.232-.106.063-5.513,1.455-10.293a23.443,23.443,0,0,0,4.557-4.7,44.442,44.442,0,0,0,13.674-73.518,23.35,23.35,0,0,0-7.57-33.965,23.348,23.348,0,0,1,4.343,31.2q-.747-.581-1.519-1.131a23.34,23.34,0,1,0-44.876-3.864,44.446,44.446,0,0,0-7.841,75.435,30.975,30.975,0,0,1-28.2-1.037,30.99,30.99,0,0,0,32.615,4.32,23.438,23.438,0,0,0,8.42,8.807,13.873,13.873,0,0,1-1.5,3.015l-1.42-1.134-6.156,6.721-15.884,3.095s-10.157,1.357-21.725,12.632-31.013,16.852-31.013,16.852l-15.264-4.1s-17.556-9.878-17.366-12.093c.03-.353-.391-.246-1.1.206l-8.587-17.216s-16.089-39.871-26.408-30.162S274.837,268.926,274.837,268.926ZM388.181,533.207l.4-4.6c5.206-7.352,8.127-25.485,9.756-42.292l-2.368,40.7a27.46,27.46,0,0,0-7.785,6.2ZM366.936,619.3l-.084,6.159a37.948,37.948,0,0,0-3.756,9.594c-.485-2.942,1.544-9.554,3.841-15.752Z" transform="translate(-87.153 -60.793)" fill="#f2f2f2"/>
      <path id="Path_2819" data-name="Path 2819" d="M650.715,671.4c0,18.478-130.29,81.786-285.509,81.786S88.62,689.879,88.62,671.4s121.368,14.87,276.586,14.87S650.715,652.922,650.715,671.4Z" transform="translate(-88.62 -56.112)" fill="#3f3d56"/>
      <path id="Path_2820" data-name="Path 2820" d="M650.715,671.4c0,18.478-130.29,81.786-285.509,81.786S88.62,689.879,88.62,671.4s121.368,14.87,276.586,14.87S650.715,652.922,650.715,671.4Z" transform="translate(-88.62 -56.112)" opacity="0.1"/>
      <ellipse id="Ellipse_133" data-name="Ellipse 133" cx="281.048" cy="33.458" rx="281.048" ry="33.458" transform="translate(0 581.83)" fill="#3f3d56"/>
      <ellipse id="Ellipse_134" data-name="Ellipse 134" cx="93.048" cy="20.069" rx="93.048" ry="20.069" transform="translate(189.745 589.371)" opacity="0.1"/>
      <path id="Path_2821" data-name="Path 2821" d="M359.833,233.789a30.964,30.964,0,0,0-1.1-50.1,30.964,30.964,0,1,1-30.389,53.668A30.955,30.955,0,0,0,359.833,233.789Z" transform="translate(-86.513 -60.351)" fill="#2f2e41"/>
      <path id="Path_2822" data-name="Path 2822" d="M414.96,261.965h5a44.525,44.525,0,0,1,6.669,36.678c-5.557,21.117-1.111,25.008-1.111,25.008s20.006,28.342,12.226,62.8-5.557,38.345-5.557,38.345l-13.893-27.786-7.78-73.355Z" transform="translate(-85.79 -59.663)" fill="#138def"/>
      <path id="Path_2823" data-name="Path 2823" d="M414.96,261.994h5a44.525,44.525,0,0,1,6.669,36.678c-5.557,21.117-1.111,25.008-1.111,25.008s20.006,28.342,12.226,62.8-5.557,38.345-5.557,38.345l-13.893-27.786-7.78-73.355Z" transform="translate(-85.79 -59.662)" opacity="0.1"/>
      <circle id="Ellipse_135" data-name="Ellipse 135" cx="44.458" cy="44.458" r="44.458" transform="translate(249.423 93.66)" fill="#2f2e41"/>
      <path id="Path_2824" data-name="Path 2824" d="M397.834,235.249s-4.446,17.783-2.223,17.783,10,9.447,10,9.447l5,18.339-3.89,13.337-13.337-2.779-16.672-18.339-5-5-4.446-16.116s5.557-6.669,1.667-12.226S397.834,235.249,397.834,235.249Z" transform="translate(-86.17 -59.898)" fill="#fbbebe"/>
      <path id="Path_2825" data-name="Path 2825" d="M397.834,235.249s-4.446,17.783-2.223,17.783,10,9.447,10,9.447l5,18.339-3.89,13.337-13.337-2.779-16.672-18.339-5-5-4.446-16.116s5.557-6.669,1.667-12.226S397.834,235.249,397.834,235.249Z" transform="translate(-86.17 -59.898)" opacity="0.1"/>
      <path id="Path_2826" data-name="Path 2826" d="M264.578,284.634l-12.226-20.006s-13.2-29.2-22.644-18.642,14.309,31.979,14.309,31.979l12.226,16.116Z" transform="translate(-87.399 -59.823)" fill="#fbbebe"/>
      <path id="Path_2827" data-name="Path 2827" d="M425.713,456.823l-8.892,65.02s1.111,5-10,23.34-41.123,58.351-41.123,58.351L356.8,586.862s10.559-52.794,28.9-63.908l-2.223-80.024Z" transform="translate(-86.262 -58.072)" fill="#fbbebe"/>
      <path id="Path_2828" data-name="Path 2828" d="M425.713,456.823l-8.892,65.02s1.111,5-10,23.34-41.123,58.351-41.123,58.351L356.8,586.862s10.559-52.794,28.9-63.908l-2.223-80.024Z" transform="translate(-86.262 -58.072)" opacity="0.1"/>
      <path id="Path_2829" data-name="Path 2829" d="M357.05,579l12.226,23.34s-10,28.342-6.113,31.12,8.892,27.786-1.667,25.007S342.6,644.572,342.6,642.9s6.113-25.008,2.779-30.565-5.557-7.224-5.557-7.224l-8.336,13.893-2.779-1.667L342.6,594s1.667-4.446,8.336-7.224Z" transform="translate(-86.509 -56.876)" fill="#2f2e41"/>
      <path id="Path_2830" data-name="Path 2830" d="M357.05,579l12.226,23.34s-10,28.342-6.113,31.12,8.892,27.786-1.667,25.007S342.6,644.572,342.6,642.9s6.113-25.008,2.779-30.565-5.557-7.224-5.557-7.224l-8.336,13.893-2.779-1.667L342.6,594s1.667-4.446,8.336-7.224Z" transform="translate(-86.509 -56.876)" opacity="0.1"/>
      <path id="Path_2831" data-name="Path 2831" d="M383.758,447.6s4.316,61.463-5.131,77.579V605.2l-12.782,1.667s-21.673-43.346-12.226-85.026-13.893-78.913-13.893-78.913Z" transform="translate(-86.413 -58.072)" fill="#fbbebe"/>
      <circle id="Ellipse_136" data-name="Ellipse 136" cx="23.34" cy="23.34" r="23.34" transform="translate(270.818 142.286)" fill="#fbbebe"/>
      <path id="Path_2832" data-name="Path 2832" d="M404.974,286.814l-23.34-29.453L368.3,248.469l-5.557,7.224-15.56,4.446s-10,2.223-20.562,14.449-29.453,19.45-29.453,19.45L281.6,291.26s-18.339-8.336-18.339-10.559-16.116,15-12.226,21.673,12.226,15,16.672,19.45,6.113,17.227,33.343,13.337,37.233-17.227,37.233-17.227,5,25.563,19.45,30.565,61.685,8.336,61.685,8.336l10-33.343s11.114-14.449-3.89-35.566c0,0-.288-11.81-1.9-19.669-.627-3.057-1.455-5.516-2.545-6.45-3.89-3.334-24.452-8.892-24.452-8.892s3.334,11.114,5,11.67S407.2,284.035,404.974,286.814Z" transform="translate(-87.198 -59.781)" fill="#138def"/>
      <path id="Path_2833" data-name="Path 2833" d="M329.617,451.854c27.986-1.945,44.28,2.64,51.549,6.135a18.425,18.425,0,0,1,3.79,2.3c.533.45.789.8.789,1.011,0,1.667,38.345,5,52.238,1.667s-9.447-75.023-15.56-81.136-2.818-28.486-2.818-28.486-12.187-2.634-15.521-1.523-20.562-1.667-26.675-5-13.893-1.111-18.895-2.223c-2.234-.495-3.362.339-3.923,1.417a9.61,9.61,0,0,1-3.8,3.84c-11.8,6.8-21.267,53.788-28.4,79.768C314.613,457.967,329.617,451.854,329.617,451.854Z" transform="translate(-86.585 -58.937)" fill="#2f2e41"/>
      <path id="Path_2834" data-name="Path 2834" d="M380.655,598.828l2.223,12.226s11.67,16.672,8.336,30.565c0,0,2.779,18.339,12.782,23.34s1.667,16.672-7.78,16.116-18.339.556-19.45-2.223-7.78-30.009-7.78-30.009v20.006l-5.557.556V644.4s-4.446-8.336,1.667-22.229l-1.543-21.326S378.987,604.386,380.655,598.828Z" transform="translate(-86.218 -56.701)" fill="#2f2e41"/>
      <circle id="Ellipse_137" data-name="Ellipse 137" cx="23.34" cy="23.34" r="23.34" transform="translate(270.54 70.319)" fill="#2f2e41"/>
      <path id="Path_2835" data-name="Path 2835" d="M397.944,168.657a23.342,23.342,0,0,0-.827-37.768,23.343,23.343,0,1,1-22.909,40.458A23.335,23.335,0,0,0,397.944,168.657Z" transform="translate(-86.109 -60.815)" fill="#2f2e41"/>
      <ellipse id="Ellipse_138" data-name="Ellipse 138" cx="23.896" cy="18.895" rx="23.896" ry="18.895" transform="translate(270.541 128.114)" fill="#2f2e41"/>
      <path id="Path_2836" data-name="Path 2836" d="M380.634,457.3a18.428,18.428,0,0,1,3.79,2.3c.294-5.252,1.995-37.011-.045-36.5Z" transform="translate(-86.053 -58.246)" opacity="0.1"/>
      <circle id="Ellipse_139" data-name="Ellipse 139" cx="78.452" cy="78.452" r="78.452" transform="translate(20.069 54.801)" fill="#ff6584"/>
      <ellipse id="Ellipse_140" data-name="Ellipse 140" cx="2.737" cy="6.386" rx="2.737" ry="6.386" transform="translate(138.102 195.079) rotate(-65.099)" fill="#fbbebe"/>
    </g>
  </g>
</svg>
