<svg id="undraw_web_search_eetr_2_" data-name="undraw_web_search_eetr (2)" xmlns="http://www.w3.org/2000/svg" width="910" height="690.932" viewBox="0 0 910 690.932">
  <rect id="Rectangle_9" data-name="Rectangle 9" width="732.665" height="469.231" transform="translate(0.313 0.415)" fill="#e6e6e6"/>
  <rect id="Rectangle_10" data-name="Rectangle 10" width="690.763" height="382.618" transform="translate(21.263 59.269)" fill="#fff"/>
  <rect id="Rectangle_11" data-name="Rectangle 11" width="732.665" height="31.126" fill="#138def"/>
  <circle id="Ellipse_3" data-name="Ellipse 3" cx="5.769" cy="5.769" r="5.769" transform="translate(17.362 10.144)" fill="#fff"/>
  <circle id="Ellipse_4" data-name="Ellipse 4" cx="5.769" cy="5.769" r="5.769" transform="translate(39.259 10.144)" fill="#fff"/>
  <circle id="Ellipse_5" data-name="Ellipse 5" cx="5.769" cy="5.769" r="5.769" transform="translate(61.157 10.144)" fill="#fff"/>
  <rect id="Rectangle_13" data-name="Rectangle 13" width="147.912" height="83.464" transform="translate(292.161 98.968)" fill="#e6e6e6"/>
  <rect id="Rectangle_23" data-name="Rectangle 23" width="147.912" height="83.464" transform="translate(82.973 98.968)" fill="#e6e6e6"/>
  <rect id="Rectangle_26" data-name="Rectangle 26" width="147.912" height="83.464" transform="translate(501.35 98.968)" fill="#e6e6e6"/>
  <rect id="Rectangle_14" data-name="Rectangle 14" width="147.912" height="89.803" transform="translate(292.161 205.676)" fill="#138def"/>
  <rect id="Rectangle_24" data-name="Rectangle 24" width="147.912" height="89.803" transform="translate(82.973 205.676)" fill="#e6e6e6"/>
  <rect id="Rectangle_27" data-name="Rectangle 27" width="147.912" height="89.803" transform="translate(501.35 205.676)" fill="#e6e6e6"/>
  <rect id="Rectangle_15" data-name="Rectangle 15" width="147.912" height="83.464" transform="translate(292.161 318.723)" fill="#e6e6e6"/>
  <rect id="Rectangle_25" data-name="Rectangle 25" width="147.912" height="83.464" transform="translate(82.973 318.723)" fill="#e6e6e6"/>
  <rect id="Rectangle_28" data-name="Rectangle 28" width="147.912" height="83.464" transform="translate(501.35 318.723)" fill="#e6e6e6"/>
  <path id="Path_45" data-name="Path 45" d="M947.737,355.625c-11.708-19.954-34.871-20.884-34.871-20.884s-22.571-2.911-37.051,27.479c-13.5,28.326-32.122,55.676-3,62.307l5.26-16.515,3.258,17.744a112.965,112.965,0,0,0,12.461.215c31.189-1.016,60.892.3,59.935-10.992C952.46,399.974,959,374.826,947.737,355.625Z" transform="translate(-109.5 -120.441)" fill="#2f2e41"/>
  <path id="Path_46" data-name="Path 46" d="M849.158,446.712l-10.241,26.172L787.71,520.677s-30.724,22.758-17.069,29.586,26.172-25.034,26.172-25.034l54.62-33,11.379-37.551Z" transform="translate(-121.948 -104.987)" fill="#ffb8b8"/>
  <path id="Path_47" data-name="Path 47" d="M654.068,555.858l10.241,26.172H679.1l-12.517-30.724Z" transform="translate(90.21 76.037)" fill="#ffb8b8"/>
  <path id="Path_48" data-name="Path 48" d="M693.068,565.858l10.241,26.172H718.1l-12.517-30.724Z" transform="translate(95.589 77.416)" fill="#ffb8b8"/>
  <path id="Path_49" data-name="Path 49" d="M902.291,747.7l19.345-4.552L896.6,641.876l8.312-77.926.222-.022s14.224-55.189,2.845-69.982-68.275-9.1-68.275-9.1-21.621,21.62-20.483,70.551,0,91.034,7.965,110.378,30.724,70.551,30.724,70.551l18.207-2.276-19.345-84.206-3.093-73.2c2.461,29.333,7.416,84.956,9.92,89.13C867.015,671.462,902.291,747.7,902.291,747.7Z" transform="translate(-114.771 -99.877)" fill="#2f2e41"/>
  <path id="Path_50" data-name="Path 50" d="M945.7,467.712l7.965,28.448,35.276,63.724s30.724,27.31,18.207,30.724-31.862-25.034-31.862-25.034l-39.827-55.758L925.217,468.85Z" transform="translate(-100.146 -102.091)" fill="#ffb8b8"/>
  <circle id="Ellipse_6" data-name="Ellipse 6" cx="28.448" cy="28.448" r="28.448" transform="translate(776.14 227.933)" fill="#ffb8b8"/>
  <path id="Path_51" data-name="Path 51" d="M896.424,384.712,889.6,406.333l-11.379,25.034,42.1-17.069s-2.276-18.207,0-22.758Z" transform="translate(-106.628 -113.539)" fill="#ffb8b8"/>
  <path id="Union_1" data-name="Union 1" d="M-960-128.586a166.717,166.717,0,0,0,11.38-33c.669-2.843,1.338-5.343,1.993-7.538l-12.234-6.117s17.068-35.276,20.482-40.965c3.4-5.671,7.52-4.018,7.546-4.007l3.011-.962,31.568-10.082-1.159,18.464,29.586-12.517,26.172,21.621h0s9.1,4.551,9.1,11.379,2.276,43.241,2.276,43.241l-25.034,7.966-6.252-19.453-.575,1.246s-3.414,1.138-7.966,7.965-4.551,3.414-4.551,3.414-11.38,17.069-10.241,20.483-2.276,5.69-2.276,5.69C-911.069-147.93-960-128.586-960-128.586Z" transform="translate(1680.383 520.378)" fill="#138def"/>
  <path id="Path_55" data-name="Path 55" d="M865.059,721.212l-19.345,7.965s-22.758,1.138-19.345,12.517,37.551,3.414,37.551,3.414,30.724,1.138,30.724-6.828-4.552-17.069-9.1-17.069Z" transform="translate(-113.827 -67.128)" fill="#2f2e41"/>
  <path id="Path_56" data-name="Path 56" d="M903.059,730.212l-19.345,7.965s-22.758,1.138-19.345,12.517,37.551,3.414,37.551,3.414,30.724,1.138,30.724-6.828-4.552-17.069-9.1-17.069Z" transform="translate(-108.586 -65.886)" fill="#2f2e41"/>
  <path id="Path_57" data-name="Path 57" d="M739.487,206.455,716.6,194.363,685,199.31l-6.539,29.127,16.276-.63,4.547-10.7V227.63l7.51-.291,4.358-17.037,2.724,18.135,26.7-.55Z" transform="translate(93.575 26.807)" fill="#2f2e41"/>
  <path id="Path_58" data-name="Path 58" d="M828.36,234.343a153.642,153.642,0,1,0,8.711,226.905l188.461,159.021a14.158,14.158,0,1,0,18.261-21.641L855.332,439.606A153.65,153.65,0,0,0,828.36,234.343Zm-12.148,189.95a115.11,115.11,0,1,1-13.742-162.209,115.11,115.11,0,0,1,13.742,162.209Z" transform="translate(-148.361 -139.273)" fill="#3f3d56"/>
  <path id="Path_59" data-name="Path 59" d="M650.934,427.713A115.116,115.116,0,0,1,631.4,272.968q-3.3,3.325-6.383,6.964A115.11,115.11,0,1,0,800.969,428.4q3.074-3.645,5.79-7.464a115.116,115.116,0,0,1-155.825,6.779Z" transform="translate(-145.292 -128.951)" opacity="0.3"/>
</svg>
