<?xml version="1.0" encoding="UTF-8"?>
<svg xmlns="http://www.w3.org/2000/svg" xmlns:xlink="http://www.w3.org/1999/xlink" width="24pt" height="24pt" viewBox="0 0 24 24" version="1.1">
<g id="surface1">
<path style=" stroke:none;fill-rule:nonzero;fill:#000000;fill-opacity:1;" d="M 12 2 C 6.476563 2 2 6.476563 2 12 C 2 17.523438 6.476563 22 12 22 C 17.523438 22 22 17.523438 22 12 C 22 6.476563 17.523438 2 12 2 Z M 12 4.75 C 13.796875 4.75 15.25 6.203125 15.25 8 C 15.25 9.796875 13.796875 11.25 12 11.25 C 10.203125 11.25 8.75 9.796875 8.75 8 C 8.75 6.203125 10.203125 4.75 12 4.75 Z M 12 20 C 9.5625 20 7.378906 18.910156 5.910156 17.1875 C 5.53125 16.742188 5.617188 16.070313 6.085938 15.71875 C 7.601563 14.574219 10.367188 14 12 14 C 13.632813 14 16.398438 14.574219 17.914063 15.71875 C 18.386719 16.070313 18.46875 16.742188 18.089844 17.1875 C 16.621094 18.910156 14.4375 20 12 20 Z "/>
</g>
</svg>
