<svg xmlns="http://www.w3.org/2000/svg" width="36" height="36" viewBox="0 0 36 36">
  <g id="surface1" transform="translate(-3.429 -3.429)">
    <path id="Path_2798" data-name="Path 2798" d="M35.143,3.429H7.714A4.285,4.285,0,0,0,3.429,7.714V35.143a4.285,4.285,0,0,0,4.286,4.286H35.143a4.285,4.285,0,0,0,4.286-4.286V7.714A4.285,4.285,0,0,0,35.143,3.429ZM31.714,16.286H30c-1.835,0-2.571.429-2.571,1.714v2.571h4.286l-.857,4.286H27.429V37.714H23.143V24.857H19.714V20.571h3.429V18c0-3.429,1.714-6,5.143-6,2.484,0,3.429.857,3.429.857Z" fill="#fff"/>
  </g>
</svg>
