<svg xmlns="http://www.w3.org/2000/svg" width="36" height="36" viewBox="0 0 36 36">
  <g id="surface1" transform="translate(-2.454 -2.455)">
    <path id="Path_2797" data-name="Path 2797" d="M30.273,2.455H10.636a8.191,8.191,0,0,0-8.182,8.182V30.27a8.192,8.192,0,0,0,8.182,8.185H30.273a8.191,8.191,0,0,0,8.182-8.182V10.636A8.189,8.189,0,0,0,30.273,2.455Zm-.623,14.3c.006.195.013.39.013.588A12.883,12.883,0,0,1,9.818,28.23a9.247,9.247,0,0,0,1.08.064,9.059,9.059,0,0,0,5.628-1.946,4.543,4.543,0,0,1-4.235-3.154,4.5,4.5,0,0,0,2.049-.077,4.551,4.551,0,0,1-3.634-4.458V18.6a4.513,4.513,0,0,0,2.052.572,4.569,4.569,0,0,1-1.4-6.069A12.875,12.875,0,0,0,20.7,17.853a4.631,4.631,0,0,1-.118-1.035,4.531,4.531,0,0,1,7.84-3.11,9.082,9.082,0,0,0,2.88-1.1A4.571,4.571,0,0,1,29.3,15.12a9.143,9.143,0,0,0,2.6-.716A9.249,9.249,0,0,1,29.65,16.757Z" fill="#fff"/>
  </g>
</svg>
