<svg xmlns="http://www.w3.org/2000/svg" width="24" height="24" viewBox="0 0 24 24">
  <g id="surface1" transform="translate(-2.4 -2.4)">
    <path id="Path_2794" data-name="Path 2794" d="M14.4,2.4c-1.425,0-2.948,2.03-3.891,5.241a.6.6,0,0,0,.581.759h6.619a.6.6,0,0,0,.581-.759C17.348,4.43,15.825,2.4,14.4,2.4Zm-4.72.97a12.06,12.06,0,0,0-5.264,4.4.406.406,0,0,0,.338.628H7.116c.511,0,.741-.2.806-.469A16.865,16.865,0,0,1,9.68,3.37Zm9.441,0a16.923,16.923,0,0,1,1.758,4.561.6.6,0,0,0,.581.469h2.578a.412.412,0,0,0,.351-.628A12.1,12.1,0,0,0,19.12,3.37ZM3.263,10.8a.414.414,0,0,0-.4.291,12.015,12.015,0,0,0,0,6.614.412.412,0,0,0,.4.3H6.755a.594.594,0,0,0,.591-.656C7.252,16.4,7.2,15.417,7.2,14.4s.052-2,.145-2.944a.594.594,0,0,0-.591-.656Zm7.116,0a.6.6,0,0,0-.6.525,26.631,26.631,0,0,0,0,6.15.6.6,0,0,0,.6.525h8.044a.6.6,0,0,0,.6-.525A26.85,26.85,0,0,0,19.2,14.4a26.85,26.85,0,0,0-.173-3.075.6.6,0,0,0-.6-.525Zm11.667,0a.594.594,0,0,0-.591.656c.094.947.145,1.927.145,2.944s-.052,2-.145,2.944a.594.594,0,0,0,.591.656h3.492a.412.412,0,0,0,.4-.3,12.016,12.016,0,0,0,0-6.614.414.414,0,0,0-.4-.291ZM4.763,20.4a.406.406,0,0,0-.347.623A12.039,12.039,0,0,0,9.68,25.43a16.926,16.926,0,0,1-1.758-4.561.6.6,0,0,0-.581-.469Zm6.328,0a.6.6,0,0,0-.581.764C11.452,24.37,12.975,26.4,14.4,26.4s2.948-2.03,3.891-5.236a.6.6,0,0,0-.581-.764Zm10.594,0c-.511,0-.741.2-.806.469A16.862,16.862,0,0,1,19.12,25.43a12.077,12.077,0,0,0,5.269-4.406.407.407,0,0,0-.347-.623Z" fill="#465055"/>
  </g>
</svg>
