<?xml version="1.0" encoding="UTF-8"?>
<svg xmlns="http://www.w3.org/2000/svg" xmlns:xlink="http://www.w3.org/1999/xlink" width="24pt" height="24pt" viewBox="0 0 24 24" version="1.1">
<g id="surface1">
<path style=" stroke:none;fill-rule:nonzero;fill:#000000;fill-opacity:1;" d="M 12 2 C 8.308594 2 5.085938 4.015625 3.351563 7 L 5.796875 7 C 6.695313 5.886719 7.871094 5.007813 9.234375 4.5 C 8.921875 5.230469 8.671875 6.078125 8.480469 7 L 10.535156 7 C 11.015625 5.023438 11.6875 4 12 4 C 12.3125 4 12.984375 5.023438 13.464844 7 L 15.519531 7 C 15.328125 6.078125 15.074219 5.230469 14.765625 4.5 C 16.128906 5.007813 17.304688 5.886719 18.203125 7 L 20.644531 7 C 18.914063 4.015625 15.691406 2 12 2 Z M 1 9 L 2.242188 15 L 3.550781 15 L 4.398438 11.53125 L 5.25 15 L 6.550781 15 L 7.792969 9 L 6.289063 9 L 5.75 12.363281 L 4.953125 9 L 3.839844 9 L 3.039063 12.371094 L 2.507813 9 Z M 8.601563 9 L 9.84375 15 L 11.15625 15 L 12.003906 11.53125 L 12.851563 15 L 14.15625 15 L 15.394531 9 L 13.894531 9 L 13.355469 12.363281 L 12.558594 9 L 11.441406 9 L 10.644531 12.371094 L 10.109375 9 Z M 16.207031 9 L 17.449219 15 L 18.757813 15 L 19.609375 11.53125 L 20.453125 15 L 21.757813 15 L 23 9 L 21.496094 9 L 20.957031 12.363281 L 20.160156 9 L 19.046875 9 L 18.246094 12.371094 L 17.714844 9 Z M 3.351563 17 C 5.085938 19.984375 8.308594 22 12 22 C 15.691406 22 18.914063 19.984375 20.644531 17 L 18.203125 17 C 17.304688 18.113281 16.128906 18.992188 14.765625 19.5 C 15.074219 18.769531 15.324219 17.921875 15.515625 17 L 13.460938 17 C 12.980469 18.976563 12.3125 20 12 20 C 11.683594 20 11.015625 18.976563 10.535156 17 L 8.480469 17 C 8.671875 17.921875 8.925781 18.769531 9.234375 19.5 C 7.871094 18.992188 6.695313 18.113281 5.796875 17 Z "/>
</g>
</svg>
