<svg xmlns="http://www.w3.org/2000/svg" width="23.988" height="23.988" viewBox="0 0 23.988 23.988">
  <g id="surface1" transform="translate(-3.998 -3.998)">
    <path id="Path_2791" data-name="Path 2791" d="M6.663,4A2.684,2.684,0,0,0,4,6.663V25.321a2.684,2.684,0,0,0,2.665,2.665H25.321a2.684,2.684,0,0,0,2.665-2.665v-8a1.333,1.333,0,1,0-2.665,0v8H6.663V6.663h8a1.333,1.333,0,1,0,0-2.665Z" fill="#fff"/>
    <g id="surface1-2" data-name="surface1" transform="translate(1.998 4.986)">
      <path id="Path_2792" data-name="Path 2792" d="M21.809,0a.609.609,0,0,0-.434.18L20.156,1.4,22.6,3.844,23.82,2.625a.615.615,0,0,0,0-.867L22.238.18A.594.594,0,0,0,21.809,0ZM19.289,2.266,12,9.555V12h2.441l7.293-7.289Z" fill="#fff"/>
    </g>
  </g>
</svg>
