<?xml version="1.0" encoding="UTF-8"?>
<svg xmlns="http://www.w3.org/2000/svg" xmlns:xlink="http://www.w3.org/1999/xlink" width="50pt" height="50pt" viewBox="0 0 50 50" version="1.1">
<g id="surface1">
<path style=" stroke:none;fill-rule:nonzero;fill:#000000;fill-opacity:1;" d="M 25.03125 1.96875 C 12.351563 1.96875 2.03125 12.289063 2.03125 24.96875 C 2.03125 37.648438 12.351563 47.96875 25.03125 47.96875 C 31.828125 47.96875 37.945313 45 42.152344 40.300781 C 42.652344 39.773438 42.828125 39.015625 42.609375 38.320313 C 42.386719 37.625 41.808594 37.105469 41.09375 36.964844 C 40.378906 36.820313 39.644531 37.078125 39.171875 37.636719 C 35.691406 41.523438 30.664063 43.96875 25.03125 43.96875 C 14.515625 43.96875 6.03125 35.484375 6.03125 24.96875 C 6.03125 14.453125 14.515625 5.96875 25.03125 5.96875 C 30.664063 5.96875 35.691406 8.414063 39.171875 12.300781 C 39.644531 12.859375 40.378906 13.117188 41.09375 12.972656 C 41.808594 12.832031 42.386719 12.3125 42.609375 11.617188 C 42.828125 10.921875 42.652344 10.164063 42.152344 9.632813 C 37.945313 4.9375 31.828125 1.96875 25.03125 1.96875 Z M 38.949219 15.949219 C 38.132813 15.949219 37.402344 16.445313 37.097656 17.199219 C 36.789063 17.953125 36.972656 18.816406 37.554688 19.382813 L 41.140625 22.96875 L 22.96875 22.96875 C 22.246094 22.957031 21.578125 23.335938 21.214844 23.960938 C 20.847656 24.582031 20.847656 25.355469 21.214844 25.976563 C 21.578125 26.601563 22.246094 26.980469 22.96875 26.96875 L 41.140625 26.96875 L 37.554688 30.554688 C 37.03125 31.054688 36.820313 31.800781 37.003906 32.503906 C 37.1875 33.203125 37.734375 33.75 38.433594 33.933594 C 39.136719 34.117188 39.882813 33.90625 40.382813 33.382813 L 47.203125 26.5625 C 47.703125 26.179688 47.996094 25.589844 47.996094 24.964844 C 47.992188 24.335938 47.699219 23.746094 47.199219 23.371094 L 40.382813 16.554688 C 40.003906 16.167969 39.488281 15.949219 38.949219 15.949219 Z "/>
</g>
</svg>
