<svg xmlns="http://www.w3.org/2000/svg" xmlns:xlink="http://www.w3.org/1999/xlink" width="30" height="30" viewBox="0 0 30 30">
  <defs>
    <clipPath id="clip-path">
      <rect id="Rectangle_1079" data-name="Rectangle 1079" width="30" height="30" transform="translate(1626 607)" fill="#2196f3" stroke="#707070" stroke-width="1"/>
    </clipPath>
  </defs>
  <g id="Mask_Group_248" data-name="Mask Group 248" transform="translate(-1626 -607)" clip-path="url(#clip-path)">
    <g id="surface1" transform="translate(1625 605.991)">
      <path id="Path_2769" data-name="Path 2769" d="M1,6.75v18.5H9.938c.828,0,6.531-.168,6.531-5.375a4.556,4.556,0,0,0-3.375-4.687,3.981,3.981,0,0,0,2.5-3.844c0-1.4-.2-4.594-5.906-4.594ZM21.375,8.469v1.688h6.906V8.469ZM5.063,9.906H8.875c.359,0,2.781-.191,2.781,2.125a2.181,2.181,0,0,1-2.469,2.188H5.063ZM25,11.688c-5.223,0-6.312,4.535-6.312,6.5,0,5.832,4.781,6.5,6.313,6.5a5.5,5.5,0,0,0,5.781-4.156h-3a2.887,2.887,0,0,1-2.656,1.625A2.812,2.812,0,0,1,22.094,19h8.875C31.148,15.625,29.672,11.688,25,11.688Zm-.094,2.531a2.51,2.51,0,0,1,1.906.688,3.377,3.377,0,0,1,.781,1.969h-5.5a3.979,3.979,0,0,1,.156-.812,2.4,2.4,0,0,1,.438-.875,2.784,2.784,0,0,1,.875-.687A2.877,2.877,0,0,1,24.906,14.219ZM5.063,17H9.469c.875,0,2.938.137,2.938,2.656,0,2.441-2.6,2.438-3,2.438H5.063Z" fill="#2196f3"/>
    </g>
  </g>
</svg>
