<svg xmlns="http://www.w3.org/2000/svg" xmlns:xlink="http://www.w3.org/1999/xlink" width="30" height="30" viewBox="0 0 30 30">
  <defs>
    <clipPath id="clip-path">
      <rect id="Rectangle_1074" data-name="Rectangle 1074" width="30" height="30" transform="translate(1666 497)" fill="#455a64" stroke="#707070" stroke-width="1"/>
    </clipPath>
  </defs>
  <g id="Mask_Group_242" data-name="Mask Group 242" transform="translate(-1666 -497)" clip-path="url(#clip-path)">
    <g id="surface1" transform="translate(1661 492.37)">
      <path id="Path_2763" data-name="Path 2763" d="M20,5a15,15,0,0,0-4.741,29.233c.752.137,1.025-.322,1.025-.723,0-.356-.015-1.3-.019-2.549-4.175.9-5.054-2.012-5.054-2.012a4,4,0,0,0-1.665-2.2c-1.362-.928.1-.908.1-.908a3.15,3.15,0,0,1,2.295,1.543,3.2,3.2,0,0,0,4.365,1.25,3.228,3.228,0,0,1,.952-2.007c-3.33-.376-6.831-1.665-6.831-7.412a5.814,5.814,0,0,1,1.543-4.028,5.411,5.411,0,0,1,.146-3.97s1.26-.4,4.126,1.538a14.27,14.27,0,0,1,7.51,0c2.866-1.938,4.121-1.538,4.121-1.538a5.369,5.369,0,0,1,.151,3.97,5.788,5.788,0,0,1,1.538,4.028c0,5.762-3.506,7.026-6.846,7.4a3.572,3.572,0,0,1,1.016,2.773c0,2.007-.015,3.623-.015,4.116,0,.4.268.869,1.03.723A15,15,0,0,0,20,5Z" fill="#455a64" fill-rule="evenodd"/>
    </g>
  </g>
</svg>
