<svg xmlns="http://www.w3.org/2000/svg" xmlns:xlink="http://www.w3.org/1999/xlink" width="503" height="201" viewBox="0 0 503 201">
  <defs>
    <clipPath id="clip-path">
      <rect width="70" height="62" fill="none"/>
    </clipPath>
  </defs>
  <g id="Group_452" data-name="Group 452" transform="translate(-566 -4959)">
    <g id="Repeat_Grid_20" data-name="Repeat Grid 20" transform="translate(999 4959)" opacity="0.3" clip-path="url(#clip-path)">
      <g transform="translate(1066 -2147)">
        <rect id="Rectangle_31" data-name="Rectangle 31" width="6" height="6" rx="3" transform="translate(-1066 2147)" fill="#138def"/>
      </g>
      <g transform="translate(1082 -2147)">
        <rect id="Rectangle_31-2" data-name="Rectangle 31" width="6" height="6" rx="3" transform="translate(-1066 2147)" fill="#138def"/>
      </g>
      <g transform="translate(1098 -2147)">
        <rect id="Rectangle_31-3" data-name="Rectangle 31" width="6" height="6" rx="3" transform="translate(-1066 2147)" fill="#138def"/>
      </g>
      <g transform="translate(1114 -2147)">
        <rect id="Rectangle_31-4" data-name="Rectangle 31" width="6" height="6" rx="3" transform="translate(-1066 2147)" fill="#138def"/>
      </g>
      <g transform="translate(1130 -2147)">
        <rect id="Rectangle_31-5" data-name="Rectangle 31" width="6" height="6" rx="3" transform="translate(-1066 2147)" fill="#138def"/>
      </g>
      <g transform="translate(1066 -2133)">
        <rect id="Rectangle_31-6" data-name="Rectangle 31" width="6" height="6" rx="3" transform="translate(-1066 2147)" fill="#138def"/>
      </g>
      <g transform="translate(1082 -2133)">
        <rect id="Rectangle_31-7" data-name="Rectangle 31" width="6" height="6" rx="3" transform="translate(-1066 2147)" fill="#138def"/>
      </g>
      <g transform="translate(1098 -2133)">
        <rect id="Rectangle_31-8" data-name="Rectangle 31" width="6" height="6" rx="3" transform="translate(-1066 2147)" fill="#138def"/>
      </g>
      <g transform="translate(1114 -2133)">
        <rect id="Rectangle_31-9" data-name="Rectangle 31" width="6" height="6" rx="3" transform="translate(-1066 2147)" fill="#138def"/>
      </g>
      <g transform="translate(1130 -2133)">
        <rect id="Rectangle_31-10" data-name="Rectangle 31" width="6" height="6" rx="3" transform="translate(-1066 2147)" fill="#138def"/>
      </g>
      <g transform="translate(1066 -2119)">
        <rect id="Rectangle_31-11" data-name="Rectangle 31" width="6" height="6" rx="3" transform="translate(-1066 2147)" fill="#138def"/>
      </g>
      <g transform="translate(1082 -2119)">
        <rect id="Rectangle_31-12" data-name="Rectangle 31" width="6" height="6" rx="3" transform="translate(-1066 2147)" fill="#138def"/>
      </g>
      <g transform="translate(1098 -2119)">
        <rect id="Rectangle_31-13" data-name="Rectangle 31" width="6" height="6" rx="3" transform="translate(-1066 2147)" fill="#138def"/>
      </g>
      <g transform="translate(1114 -2119)">
        <rect id="Rectangle_31-14" data-name="Rectangle 31" width="6" height="6" rx="3" transform="translate(-1066 2147)" fill="#138def"/>
      </g>
      <g transform="translate(1130 -2119)">
        <rect id="Rectangle_31-15" data-name="Rectangle 31" width="6" height="6" rx="3" transform="translate(-1066 2147)" fill="#138def"/>
      </g>
      <g transform="translate(1066 -2105)">
        <rect id="Rectangle_31-16" data-name="Rectangle 31" width="6" height="6" rx="3" transform="translate(-1066 2147)" fill="#138def"/>
      </g>
      <g transform="translate(1082 -2105)">
        <rect id="Rectangle_31-17" data-name="Rectangle 31" width="6" height="6" rx="3" transform="translate(-1066 2147)" fill="#138def"/>
      </g>
      <g transform="translate(1098 -2105)">
        <rect id="Rectangle_31-18" data-name="Rectangle 31" width="6" height="6" rx="3" transform="translate(-1066 2147)" fill="#138def"/>
      </g>
      <g transform="translate(1114 -2105)">
        <rect id="Rectangle_31-19" data-name="Rectangle 31" width="6" height="6" rx="3" transform="translate(-1066 2147)" fill="#138def"/>
      </g>
      <g transform="translate(1130 -2105)">
        <rect id="Rectangle_31-20" data-name="Rectangle 31" width="6" height="6" rx="3" transform="translate(-1066 2147)" fill="#138def"/>
      </g>
      <g transform="translate(1066 -2091)">
        <rect id="Rectangle_31-21" data-name="Rectangle 31" width="6" height="6" rx="3" transform="translate(-1066 2147)" fill="#138def"/>
      </g>
      <g transform="translate(1082 -2091)">
        <rect id="Rectangle_31-22" data-name="Rectangle 31" width="6" height="6" rx="3" transform="translate(-1066 2147)" fill="#138def"/>
      </g>
      <g transform="translate(1098 -2091)">
        <rect id="Rectangle_31-23" data-name="Rectangle 31" width="6" height="6" rx="3" transform="translate(-1066 2147)" fill="#138def"/>
      </g>
      <g transform="translate(1114 -2091)">
        <rect id="Rectangle_31-24" data-name="Rectangle 31" width="6" height="6" rx="3" transform="translate(-1066 2147)" fill="#138def"/>
      </g>
      <g transform="translate(1130 -2091)">
        <rect id="Rectangle_31-25" data-name="Rectangle 31" width="6" height="6" rx="3" transform="translate(-1066 2147)" fill="#138def"/>
      </g>
    </g>
    <g id="Repeat_Grid_21" data-name="Repeat Grid 21" transform="translate(566 5098)" opacity="0.3" clip-path="url(#clip-path)">
      <g transform="translate(1066 -2147)">
        <rect id="Rectangle_31-26" data-name="Rectangle 31" width="6" height="6" rx="3" transform="translate(-1066 2147)" fill="#138def"/>
      </g>
      <g transform="translate(1082 -2147)">
        <rect id="Rectangle_31-27" data-name="Rectangle 31" width="6" height="6" rx="3" transform="translate(-1066 2147)" fill="#138def"/>
      </g>
      <g transform="translate(1098 -2147)">
        <rect id="Rectangle_31-28" data-name="Rectangle 31" width="6" height="6" rx="3" transform="translate(-1066 2147)" fill="#138def"/>
      </g>
      <g transform="translate(1114 -2147)">
        <rect id="Rectangle_31-29" data-name="Rectangle 31" width="6" height="6" rx="3" transform="translate(-1066 2147)" fill="#138def"/>
      </g>
      <g transform="translate(1130 -2147)">
        <rect id="Rectangle_31-30" data-name="Rectangle 31" width="6" height="6" rx="3" transform="translate(-1066 2147)" fill="#138def"/>
      </g>
      <g transform="translate(1066 -2133)">
        <rect id="Rectangle_31-31" data-name="Rectangle 31" width="6" height="6" rx="3" transform="translate(-1066 2147)" fill="#138def"/>
      </g>
      <g transform="translate(1082 -2133)">
        <rect id="Rectangle_31-32" data-name="Rectangle 31" width="6" height="6" rx="3" transform="translate(-1066 2147)" fill="#138def"/>
      </g>
      <g transform="translate(1098 -2133)">
        <rect id="Rectangle_31-33" data-name="Rectangle 31" width="6" height="6" rx="3" transform="translate(-1066 2147)" fill="#138def"/>
      </g>
      <g transform="translate(1114 -2133)">
        <rect id="Rectangle_31-34" data-name="Rectangle 31" width="6" height="6" rx="3" transform="translate(-1066 2147)" fill="#138def"/>
      </g>
      <g transform="translate(1130 -2133)">
        <rect id="Rectangle_31-35" data-name="Rectangle 31" width="6" height="6" rx="3" transform="translate(-1066 2147)" fill="#138def"/>
      </g>
      <g transform="translate(1066 -2119)">
        <rect id="Rectangle_31-36" data-name="Rectangle 31" width="6" height="6" rx="3" transform="translate(-1066 2147)" fill="#138def"/>
      </g>
      <g transform="translate(1082 -2119)">
        <rect id="Rectangle_31-37" data-name="Rectangle 31" width="6" height="6" rx="3" transform="translate(-1066 2147)" fill="#138def"/>
      </g>
      <g transform="translate(1098 -2119)">
        <rect id="Rectangle_31-38" data-name="Rectangle 31" width="6" height="6" rx="3" transform="translate(-1066 2147)" fill="#138def"/>
      </g>
      <g transform="translate(1114 -2119)">
        <rect id="Rectangle_31-39" data-name="Rectangle 31" width="6" height="6" rx="3" transform="translate(-1066 2147)" fill="#138def"/>
      </g>
      <g transform="translate(1130 -2119)">
        <rect id="Rectangle_31-40" data-name="Rectangle 31" width="6" height="6" rx="3" transform="translate(-1066 2147)" fill="#138def"/>
      </g>
      <g transform="translate(1066 -2105)">
        <rect id="Rectangle_31-41" data-name="Rectangle 31" width="6" height="6" rx="3" transform="translate(-1066 2147)" fill="#138def"/>
      </g>
      <g transform="translate(1082 -2105)">
        <rect id="Rectangle_31-42" data-name="Rectangle 31" width="6" height="6" rx="3" transform="translate(-1066 2147)" fill="#138def"/>
      </g>
      <g transform="translate(1098 -2105)">
        <rect id="Rectangle_31-43" data-name="Rectangle 31" width="6" height="6" rx="3" transform="translate(-1066 2147)" fill="#138def"/>
      </g>
      <g transform="translate(1114 -2105)">
        <rect id="Rectangle_31-44" data-name="Rectangle 31" width="6" height="6" rx="3" transform="translate(-1066 2147)" fill="#138def"/>
      </g>
      <g transform="translate(1130 -2105)">
        <rect id="Rectangle_31-45" data-name="Rectangle 31" width="6" height="6" rx="3" transform="translate(-1066 2147)" fill="#138def"/>
      </g>
      <g transform="translate(1066 -2091)">
        <rect id="Rectangle_31-46" data-name="Rectangle 31" width="6" height="6" rx="3" transform="translate(-1066 2147)" fill="#138def"/>
      </g>
      <g transform="translate(1082 -2091)">
        <rect id="Rectangle_31-47" data-name="Rectangle 31" width="6" height="6" rx="3" transform="translate(-1066 2147)" fill="#138def"/>
      </g>
      <g transform="translate(1098 -2091)">
        <rect id="Rectangle_31-48" data-name="Rectangle 31" width="6" height="6" rx="3" transform="translate(-1066 2147)" fill="#138def"/>
      </g>
      <g transform="translate(1114 -2091)">
        <rect id="Rectangle_31-49" data-name="Rectangle 31" width="6" height="6" rx="3" transform="translate(-1066 2147)" fill="#138def"/>
      </g>
      <g transform="translate(1130 -2091)">
        <rect id="Rectangle_31-50" data-name="Rectangle 31" width="6" height="6" rx="3" transform="translate(-1066 2147)" fill="#138def"/>
      </g>
    </g>
  </g>
</svg>
