<?xml version="1.0" encoding="utf-8"?>
<!-- Generator: Adobe Illustrator 24.1.2, SVG Export Plug-In . SVG Version: 6.00 Build 0)  -->
<svg version="1.1" id="Layer_1" xmlns="http://www.w3.org/2000/svg" xmlns:xlink="http://www.w3.org/1999/xlink" x="0px" y="0px"
	 viewBox="0 0 512 512" style="enable-background:new 0 0 512 512;" xml:space="preserve">
<style type="text/css">
	.st0{fill:url(#SVGID_1_);}
	.st1{fill:#FFFFFF;}
</style>
<linearGradient id="SVGID_1_" gradientUnits="userSpaceOnUse" x1="256.002" y1="76.6168" x2="256.002" y2="9.528" gradientTransform="matrix(1 0 0 -1 1.831055e-04 514)">
	<stop  offset="0" style="stop-color:#00B0ED;stop-opacity:0"/>
	<stop  offset="1" style="stop-color:#00A2CE"/>
</linearGradient>
<path class="st0" d="M7.7,409.8c0.4,3.5,0.7,7.1,1.1,10.6c4.7,43.7,39.1,78.2,82.8,82.8c109.5,11.7,219.3,11.7,328.8,0
	c43.7-4.7,78.2-39.1,82.8-82.8c0.4-3.5,0.7-7.1,1.1-10.6H7.7z"/>
<g>
	<path class="st1" d="M503.2,91.6c-4.7-43.7-39.1-78.2-82.8-82.8C310.9-2.9,201.1-2.9,91.6,8.8C47.9,13.4,13.4,47.9,8.8,91.6
		c-11.7,109.5-11.7,219.3,0,328.8c4.7,43.7,39.1,78.2,82.8,82.8c109.5,11.7,219.3,11.7,328.8,0c43.7-4.7,78.2-39.1,82.8-82.8
		C514.9,310.9,514.9,201.1,503.2,91.6z M383.4,191.1c0,0.5,0,1.1,0,1.6c0,0.8,0,1.5,0,2.3c0,1.3,0,2.6,0,3.9
		c0,103-83.5,186.5-186.5,186.5c-36.6,0-70.8-10.6-99.6-28.8c58.6,4.7,94.5-28.1,94.5-28.1c-50-3.1-60-45.6-60-45.6
		c10,4.4,30-0.6,30-0.6c-56.9-15.6-53.8-65-53.8-65c10.6,7.5,30.6,8.1,30.6,8.1c-49.4-35-20-86.3-20-86.3
		c52.8,61.3,116.4,66.7,134.1,67c-0.6-3-1-6.1-1.2-9.3c-0.1-1.3-0.1-2.6-0.1-3.9c0-36.5,29.6-66,66-66c18.5,0,35.3,7.6,47.2,19.9
		c2.6-0.4,6.2-1,10.7-2.2c7.9-2.1,18.4-5.9,30.3-12.7c0,0-5.9,22.4-25.1,34.3c0,0.3,0.1,0.5,0.1,0.8c5.7-0.8,22.7-3.5,34-9.5
		C414.7,157.4,402.4,178.4,383.4,191.1z"/>
</g>
</svg>
